<?xml version="1.0" encoding="UTF-8" standalone="no"?>
<svg
   xmlns:dc="http://purl.org/dc/elements/1.1/"
   xmlns:cc="http://creativecommons.org/ns#"
   xmlns:rdf="http://www.w3.org/1999/02/22-rdf-syntax-ns#"
   xmlns:svg="http://www.w3.org/2000/svg"
   xmlns="http://www.w3.org/2000/svg"
   viewBox="0 0 96 96"
   width="96"
   height="96"
   version="1.1"
   id="svg8">
  <metadata
     id="metadata14">
    <rdf:RDF>
      <cc:Work
         rdf:about="">
        <dc:format>image/svg+xml</dc:format>
        <dc:type
           rdf:resource="http://purl.org/dc/dcmitype/StillImage" />
        <dc:title></dc:title>
      </cc:Work>
    </rdf:RDF>
  </metadata>
  <defs
     id="defs12" />
  <rect
     style="opacity:1;fill:#7289da;fill-opacity:1;fill-rule:evenodd;stroke:none;stroke-width:1.13358581;stroke-linecap:round;stroke-linejoin:round"
     id="rect823"
     width="96"
     height="96"
     x="0"
     y="0" />
  <path
     style="fill:#ffffff;stroke-width:0.47986287"
     d="m 40.347656,28.027344 c 0,0 -6.527474,-0.14234 -13.4375,4.992188 0,0 -6.910156,12.426748 -6.910156,27.734374 0,0 4.03175,6.91019 14.636718,7.246094 0,0 1.77525,-2.110116 3.214844,-3.933594 -6.094258,-1.823478 -8.398438,-5.617188 -8.398438,-5.617188 0,0 0.479998,0.336544 1.343752,0.816406 0.04798,0 0.09542,0.04966 0.1914,0.09766 0.14396,0.09598 0.289634,0.1423 0.433594,0.238282 1.199658,0.671808 2.396314,1.200936 3.5,1.632812 1.967436,0.815768 4.319466,1.534652 7.054686,2.0625 3.59897,0.671808 7.823004,0.91063 12.429688,0.04688 2.255354,-0.431876 4.557718,-1.054788 6.957032,-2.0625 1.67952,-0.623822 3.552092,-1.536402 5.51953,-2.832032 0,0 -2.401296,3.88857 -8.6875,5.664064 1.439594,1.775492 3.167976,3.839842 3.167976,3.839842 C 71.968252,67.61722 76,60.70592 76,60.753906 76,45.44628 69.089844,33.019532 69.089844,33.019532 c -6.86204,-5.134534 -13.4375,-4.992188 -13.4375,-4.992188 l -0.671876,0.769532 c 8.15767,2.447302 11.94922,6.042968 11.94922,6.042968 -4.990574,-2.687234 -9.88271,-4.030748 -14.441406,-4.558594 -3.455012,-0.383882 -6.768152,-0.286234 -9.695314,0.09766 -0.287918,0 -0.52849,0.04968 -0.816406,0.09766 -1.679522,0.19194 -5.756092,0.764178 -10.890624,3.019532 -1.775494,0.767776 -2.832032,1.34375 -2.832032,1.34375 0,0 3.93278,-3.790988 12.570312,-6.238282 z m -1.296874,17.70703 c 2.73522,0 4.94251,2.35018 4.89453,5.277344 0,2.927164 -2.15931,5.28125 -4.89453,5.28125 -2.68723,0 -4.894532,-2.354086 -4.894532,-5.28125 0,-2.927164 2.159316,-5.277344 4.894532,-5.277344 z m 17.515624,0 c 2.687232,0 4.894532,2.35018 4.894532,5.277344 0,2.927164 -2.159314,5.28125 -4.894532,5.28125 -2.68723,0 -4.89453,-2.354086 -4.89453,-5.28125 0,-2.927164 2.159312,-5.277344 4.89453,-5.277344 z"
     id="path4" />
</svg>
