<?xml version="1.0" encoding="UTF-8" standalone="no"?>
<svg
   xmlns:dc="http://purl.org/dc/elements/1.1/"
   xmlns:cc="http://creativecommons.org/ns#"
   xmlns:rdf="http://www.w3.org/1999/02/22-rdf-syntax-ns#"
   xmlns:svg="http://www.w3.org/2000/svg"
   xmlns="http://www.w3.org/2000/svg"
   id="svg8"
   version="1.1"
   viewBox="0 0 170 40.000002"
   height="40"
   width="170">
  <defs
     id="defs2" />
  <metadata
     id="metadata5">
    <rdf:RDF>
      <cc:Work
         rdf:about="">
        <dc:format>image/svg+xml</dc:format>
        <dc:type
           rdf:resource="http://purl.org/dc/dcmitype/StillImage" />
        <dc:title></dc:title>
      </cc:Work>
    </rdf:RDF>
  </metadata>
  <g
     transform="translate(0,-1082.5197)"
     id="layer1">
    <path
       transform="translate(0,1082.5197)"
       id="path1262"
       d="M 4.9570312 2.5253906 C 4.8901113 2.5253906 4.8281676 2.5680469 4.7910156 2.6230469 C 4.7537656 2.6460469 4.7040546 2.635875 4.6816406 2.671875 C 4.6164606 2.778675 4.6235119 2.87675 4.6386719 2.96875 C 4.6689819 3.15245 4.7628731 3.3546094 4.9082031 3.5996094 C 5.2411121 4.1602094 5.7327419 4.7862312 6.6542969 5.8320312 L 7.1816406 6.4277344 L 7.1425781 6.4628906 C 7.0014831 6.5940906 6.886998 6.7517125 6.890625 6.9453125 C 6.894225 7.1389125 6.9901311 7.295575 7.1269531 7.484375 C 7.3507441 7.793175 7.7775628 8.1817156 8.3085938 8.6035156 C 8.8396257 9.0254156 9.4712232 9.4702438 10.082031 9.8398438 C 10.136231 9.8728437 10.171735 9.8967344 10.21875 9.9277344 C 10.16745 9.9557344 10.111578 9.9774844 10.070312 10.021484 C 10.001853 10.097484 9.9603285 10.205994 9.9609375 10.308594 C 9.9621375 10.513894 10.073285 10.672216 10.232422 10.853516 C 10.396978 11.041016 10.653009 11.224681 10.966797 11.425781 C 10.967767 11.426481 10.969803 11.425781 10.970703 11.425781 C 11.156663 11.559681 11.34975 11.668866 11.515625 11.759766 C 11.809985 11.921266 12.203895 12.121697 12.414062 12.216797 C 12.58392 12.293797 12.754716 12.384769 12.814453 12.417969 C 12.767813 12.503969 12.721346 12.584672 12.722656 12.701172 C 12.724156 12.842772 12.785942 12.955619 12.867188 13.074219 C 12.948438 13.193119 13.057626 13.316878 13.199219 13.455078 C 13.482405 13.731578 13.891501 14.059612 14.423828 14.445312 L 14.673828 14.626953 C 14.618398 14.647953 14.553318 14.6625 14.503906 14.6875 C 14.438586 14.7215 14.380933 14.757934 14.328125 14.802734 C 14.275315 14.847734 14.220561 14.893587 14.189453 14.992188 C 14.135803 15.161188 14.224052 15.3285 14.333984 15.4375 C 14.443903 15.5471 14.591613 15.638522 14.783203 15.732422 C 15.298175 15.984622 16.387025 16.326619 17.044922 16.449219 C 17.199616 16.477219 17.347695 16.511062 17.457031 16.539062 C 17.511691 16.554063 17.55572 16.566172 17.583984 16.576172 C 17.596704 16.576172 17.604252 16.587891 17.607422 16.587891 C 17.638582 16.611891 17.662403 16.622719 17.689453 16.636719 C 17.726383 16.653719 17.769519 16.674359 17.818359 16.693359 C 17.916019 16.733359 18.037771 16.775306 18.164062 16.816406 C 18.44443 16.906406 18.587398 16.9745 18.683594 17.0625 C 18.779784 17.1505 18.855502 17.280016 18.960938 17.541016 C 19.239161 18.229316 19.299829 18.549969 19.279297 19.230469 C 19.262407 19.790069 19.266991 19.780578 19.119141 20.080078 C 19.051631 20.216978 18.7395 20.690087 18.464844 21.054688 C 17.613853 22.184088 16.808949 23.692153 16.501953 24.751953 C 15.958359 26.628453 16.329747 29.213034 17.376953 30.802734 C 18.134063 31.951934 19.819008 33.366375 21.291016 34.109375 C 22.098263 34.516875 23.523904 34.818609 25.228516 34.974609 C 25.229716 34.975009 25.231122 34.975309 25.232422 34.974609 L 25.464844 34.974609 L 25.931641 34.974609 L 27.326172 34.974609 C 29.660004 34.957609 30.286991 34.888822 31.816406 34.482422 C 32.767886 34.229622 33.558305 33.818897 34.626953 33.029297 C 35.299026 32.532597 36.462316 31.374641 36.839844 30.806641 C 37.562801 29.719141 37.940894 28.2899 37.947266 26.6875 C 37.952666 25.3178 37.773216 24.599428 37.064453 23.173828 C 36.587991 22.215528 36.294444 21.742869 35.666016 20.917969 C 35.555083 20.772369 35.44201 20.613316 35.351562 20.478516 C 35.261122 20.343316 35.189316 20.219259 35.177734 20.193359 C 35.113964 20.050159 35.079017 19.724412 35.117188 19.320312 C 35.155367 18.916412 35.255694 18.430794 35.414062 17.933594 C 35.455782 17.802394 35.500174 17.676631 35.535156 17.582031 C 35.552646 17.534031 35.568818 17.49635 35.580078 17.46875 C 35.582778 17.46875 35.586444 17.454172 35.589844 17.451172 C 35.652784 17.379172 35.858493 17.244453 36.160156 17.126953 C 36.469946 17.006453 36.87502 16.891287 37.328125 16.804688 C 37.660947 16.740687 38.220714 16.588178 38.609375 16.455078 C 39.163358 16.265478 39.557688 16.098994 39.816406 15.933594 C 39.945772 15.851594 40.044889 15.772544 40.111328 15.652344 C 40.177768 15.532044 40.165182 15.338169 40.076172 15.230469 C 39.975073 15.108869 39.857316 15.056141 39.722656 14.994141 L 39.705078 14.994141 L 39.806641 14.921875 C 40.305164 14.566075 40.70488 14.243184 40.998047 13.958984 C 41.286309 13.679584 41.475496 13.450631 41.550781 13.207031 C 41.595761 13.092131 41.621177 12.958525 41.560547 12.828125 C 41.551347 12.808125 41.522096 12.812922 41.509766 12.794922 C 41.663381 12.707922 41.871086 12.593444 42.121094 12.464844 C 43.2268 11.895944 43.712736 11.590391 44.070312 11.212891 C 44.218975 11.055791 44.314165 10.876594 44.3125 10.683594 C 44.3112 10.533394 44.216385 10.402741 44.09375 10.306641 C 44.11236 10.293641 44.121868 10.285531 44.142578 10.269531 C 44.309985 10.150631 44.544177 9.9892594 44.800781 9.8183594 C 45.601193 9.2852594 46.232587 8.802925 46.673828 8.390625 C 46.894449 8.184425 47.069412 7.9958125 47.193359 7.8203125 C 47.317301 7.6448125 47.39972 7.481875 47.400391 7.296875 C 47.401118 7.092575 47.287139 6.9065031 47.119141 6.7832031 L 47.628906 6.2148438 C 48.235973 5.5379438 48.736477 4.9243406 49.089844 4.4316406 C 49.266528 4.1853406 49.404759 3.9705094 49.503906 3.7871094 C 49.603046 3.6037094 49.671875 3.466175 49.671875 3.296875 C 49.671875 3.191375 49.648938 3.0907063 49.585938 3.0039062 C 49.524507 2.9209062 49.407719 2.8581813 49.291016 2.8632812 C 49.192466 2.8632812 49.124892 2.9063594 49.076172 2.9433594 C 49.109152 2.9183594 49.067068 2.9437031 49.023438 2.9707031 C 48.979937 2.9937031 48.917285 3.0245469 48.841797 3.0605469 C 48.690825 3.1325469 48.484201 3.2280375 48.246094 3.3359375 C 47.769882 3.5517375 47.166742 3.8172812 46.619141 4.0507812 C 46.418568 4.1357813 46.027551 4.3774312 45.400391 4.7695312 C 44.788615 5.1521312 43.9698 5.67515 43.03125 6.28125 C 43.00978 6.28125 42.989383 6.2965938 42.970703 6.3085938 L 41.419922 7.3222656 C 41.17275 7.4836656 41.067722 7.5485094 40.798828 7.7246094 C 39.39849 8.6417094 38.102768 9.4806156 37.128906 10.103516 C 36.641974 10.414916 36.235723 10.671922 35.9375 10.857422 C 35.640939 11.042022 35.425272 11.165422 35.416016 11.169922 C 35.414816 11.170422 35.411256 11.169922 35.410156 11.169922 L 35.410156 11.171875 C 35.191784 11.236875 34.910506 11.278619 33.482422 11.449219 C 33.226539 11.480219 33.098035 11.489281 33.0625 11.488281 C 33.0591 11.488281 33.063788 11.489562 33.054688 11.476562 C 33.023387 11.436563 32.957394 11.235403 32.958984 10.908203 C 32.960584 10.581003 33.011071 10.133631 33.111328 9.5820312 C 33.139198 9.4287313 33.164447 9.2960469 33.185547 9.1855469 C 33.420962 9.2675469 33.68003 9.260625 33.943359 9.140625 L 34.166016 9.0390625 C 34.185236 9.0260625 34.204753 9.0198594 34.220703 9.0058594 C 34.227103 9.0058594 34.236528 9.0062594 34.242188 9.0058594 C 34.335777 8.9848594 34.385597 8.9465844 34.460938 8.8964844 C 34.536277 8.8464844 34.623647 8.7812187 34.722656 8.6992188 C 35.34916 8.1780188 35.747727 7.7153188 35.898438 7.2617188 C 35.973788 7.0349188 35.979301 6.8036031 35.900391 6.5957031 C 35.821491 6.3879031 35.665075 6.214325 35.455078 6.078125 C 35.320844 5.992125 35.153499 5.9086562 35.005859 5.8476562 C 34.932029 5.8156563 34.865523 5.7923906 34.802734 5.7753906 C 34.774074 5.7623906 34.746571 5.7627656 34.712891 5.7597656 L 34.546875 5.6171875 C 34.053813 5.1908875 33.225 5.0196313 32.068359 5.0195312 C 31.140923 5.0194313 30.638076 5.103375 30.130859 5.359375 C 29.976492 5.437375 29.860676 5.4981813 29.761719 5.6132812 C 29.662759 5.7282813 29.600774 5.8600969 29.488281 6.0917969 C 29.213764 6.6575969 29.065953 7.1814875 28.773438 8.6171875 C 28.426178 10.321488 28.203388 11.054012 27.787109 11.882812 L 27.667969 12.121094 C 27.597229 12.073094 27.513347 12.01525 27.451172 11.96875 C 27.323835 11.87475 27.173214 11.806744 27.017578 11.777344 C 26.922038 11.760344 26.787467 11.752547 26.673828 11.810547 C 26.560191 11.868547 26.482415 11.949784 26.341797 12.083984 C 26.171746 12.246184 26.048978 12.325744 26.009766 12.339844 C 26.006466 12.339844 26.007659 12.340244 26.005859 12.339844 C 26.007759 12.340844 26.010947 12.341125 25.998047 12.328125 C 25.987367 12.315125 26.000387 12.343547 25.992188 12.310547 C 25.983988 12.274547 25.973324 12.191156 25.964844 12.035156 C 25.947884 11.723856 25.937645 11.134184 25.921875 10.021484 C 25.903625 8.7315844 25.865468 7.4521094 25.830078 7.0996094 C 25.589306 4.7026094 25.19143 3.3855781 24.375 2.7675781 C 24.248596 2.6725781 24.135996 2.593225 23.984375 2.578125 C 23.832783 2.563125 23.70593 2.6194531 23.568359 2.6894531 C 23.051856 2.9529531 22.661341 3.5595625 22.34375 4.4140625 C 22.02616 5.2686625 21.788693 6.3849906 21.646484 7.7128906 C 21.616344 7.9941906 21.581692 8.3079969 21.570312 8.4042969 C 21.555353 8.5300969 21.531879 8.8910062 21.511719 9.2539062 C 21.491689 9.6142063 21.469634 9.9788219 21.464844 10.044922 C 21.457244 10.150522 21.451686 10.461816 21.447266 10.791016 L 21.441406 11.15625 L 21.400391 11.15625 C 21.266348 11.14325 20.993624 11.118797 20.820312 11.091797 C 20.628283 11.062797 20.227221 11.010563 19.914062 10.976562 C 19.366574 10.916563 19.220104 10.933406 18.648438 10.628906 C 18.07723 10.324706 17.104242 9.6909406 15.054688 8.3691406 L 15.050781 8.3691406 C 13.826416 7.5553406 12.530069 6.7825781 11.361328 5.9550781 L 11.355469 5.9550781 C 8.4051807 4.0306781 8.0116975 3.8340125 6.7265625 3.2578125 C 6.2983305 3.0659125 5.896832 2.8910188 5.59375 2.7617188 C 5.442209 2.6967187 5.3152261 2.6429687 5.2207031 2.6054688 C 5.1734431 2.5864687 5.1352816 2.5725469 5.1035156 2.5605469 C 5.0717556 2.5475469 5.07553 2.54025 5 2.53125 C 4.9928 2.53035 4.9858056 2.53125 4.9785156 2.53125 L 4.9785156 2.5253906 C 4.9709156 2.5252906 4.9645812 2.5247906 4.9570312 2.5253906 z "
       style="fill:#ffffff;fill-opacity:1;stroke-width:0.07324236" />
    <path
       id="path1030"
       d="m 31.092533,1103.3505 c -0.0793,0.081 -0.136557,0.1357 -0.221563,0.2245 -0.709013,0.7397 -1.365267,1.3791 -1.904121,1.8577 -0.269428,0.2392 -0.506029,0.4372 -0.735704,0.6041 -0.114841,0.084 -0.225206,0.1589 -0.372114,0.2385 -0.146907,0.08 -0.267568,0.2215 -0.818079,0.2215 -0.542112,0 -0.637348,-0.1271 -0.777368,-0.1978 -0.140019,-0.07 -0.248974,-0.1382 -0.365485,-0.2149 -0.233017,-0.1535 -0.484966,-0.3415 -0.7821,-0.5747 -0.594269,-0.4667 -1.357759,-1.1116 -2.253509,-1.9051 -0.02803,-0.024 -0.04542,-0.037 -0.0729,-0.062 -0.250169,0.1424 -0.523715,0.299 -0.676053,0.3985 -0.651784,0.4258 -1.126842,0.8163 -1.658886,1.3616 -0.958087,0.9822 -1.382274,1.7159 -1.703386,2.9012 -0.108229,0.3994 -0.08143,0.2075 -0.08143,1.1097 0,0.9128 -0.02855,0.702 0.089,1.1391 0.41189,1.5313 1.86099,3.137 4.154789,4.1813 0.651965,0.2955 2.959349,0.5987 6.002099,0.4165 1.359788,-0.081 1.973977,-0.2224 2.55745,-0.495 1.693661,-0.7916 3.009054,-2.0161 3.642542,-3.2355 0.551158,-1.061 0.646942,-2.3289 0.224404,-3.5877 -0.445536,-1.3272 -1.550466,-2.7013 -3.241078,-3.8082 -0.160458,-0.1055 -0.613276,-0.3624 -1.006504,-0.5729 z"
       style="fill:#b6b6b6;fill-opacity:1;stroke:none;stroke-width:0.07324236" />
    <path
       id="path939-7"
       d="m 4.9792856,1085.045 c -0.00759,-10e-5 -0.015171,3e-4 -0.022724,9e-4 -0.066925,0 -0.1276005,0.042 -0.1647523,0.097 -0.037245,0.023 -0.087424,0.013 -0.1098347,0.049 -0.065178,0.1068 -0.057766,0.2054 -0.042608,0.2974 0.030315,0.1837 0.1226293,0.3847 0.2679593,0.6297 0.3329092,0.5606 0.8263347,1.1877 1.7478904,2.2335 l 0.525503,0.5956 -0.037877,0.035 c -0.1410958,0.1312 -0.2564361,0.2894 -0.2528094,0.483 0.00364,0.1936 0.1008377,0.349 0.2376599,0.5378 0.2237914,0.3088 0.6496938,0.6983 1.1807252,1.1201 0.5310317,0.4219 1.1626461,0.8661 1.773454,1.2357 0.0542,0.033 0.09028,0.058 0.137295,0.089 -0.0513,0.028 -0.10739,0.049 -0.148656,0.093 -0.06846,0.076 -0.1104456,0.1844 -0.1098371,0.287 0.00121,0.2053 0.1126101,0.364 0.2717471,0.5453 0.164556,0.1875 0.420969,0.3709 0.734757,0.572 9.7e-4,7e-4 0.0019,0 0.0028,0 0.18596,0.1339 0.379512,0.2423 0.545387,0.3332 0.29436,0.1615 0.689344,0.3633 0.899512,0.4584 0.169857,0.077 0.338887,0.1664 0.398624,0.1996 -0.04664,0.086 -0.09127,0.1677 -0.08996,0.2842 0.0015,0.1416 0.06173,0.2535 0.142975,0.3721 0.08125,0.1189 0.191699,0.2433 0.333292,0.3815 0.283186,0.2765 0.691005,0.6057 1.223332,0.9914 l 0.24997,0.1809 c -0.05543,0.021 -0.119127,0.036 -0.168539,0.061 -0.06532,0.034 -0.124254,0.07 -0.177062,0.1148 -0.05281,0.045 -0.106186,0.09 -0.137294,0.1886 -0.05365,0.169 0.03399,0.3368 0.143922,0.4458 0.109919,0.1096 0.257218,0.2007 0.448808,0.2946 0.514972,0.2522 1.603188,0.5941 2.261085,0.7167 0.154694,0.028 0.303491,0.062 0.412827,0.09 0.05466,0.015 0.09956,0.027 0.127824,0.037 0.01272,0 0.02049,0.013 0.02366,0.013 0.03116,0.024 0.05343,0.034 0.08048,0.048 0.03693,0.017 0.07993,0.037 0.12877,0.056 0.09766,0.04 0.21931,0.082 0.345601,0.1231 0.280368,0.09 0.424573,0.159 0.520769,0.247 0.09619,0.088 0.171045,0.2182 0.276481,0.4792 0.278223,0.6883 0.338675,1.0077 0.318143,1.6882 -0.01689,0.5596 -0.01217,0.5507 -0.16002,0.8502 -0.06751,0.1369 -0.378671,0.6098 -0.653327,0.9744 -0.850991,1.1294 -1.65583,2.6367 -1.962826,3.6965 -0.543594,1.8765 -0.172314,4.4626 0.874892,6.0523 0.75711,1.1492 2.442279,2.5624 3.914287,3.3054 0.807247,0.4075 2.231455,0.7103 3.936067,0.8663 0.0012,4e-4 0.0025,7e-4 0.0038,0 0.04989,0 0.115044,0 0.233872,0 0.11883,0 0.278139,0 0.466798,0 0.377317,0 0.872462,0 1.394715,0 2.333832,-0.017 2.959614,-0.086 4.489029,-0.4924 0.95148,-0.2528 1.741609,-0.6648 2.810257,-1.4544 0.672073,-0.4967 1.836214,-1.6533 2.213742,-2.2213 0.722957,-1.0875 1.101447,-2.5174 1.107819,-4.1198 0.0054,-1.3697 -0.174652,-2.0882 -0.883415,-3.5138 -0.476462,-0.9583 -0.769126,-1.4314 -1.397554,-2.2563 -0.110933,-0.1456 -0.223907,-0.3036 -0.314355,-0.4384 -0.09044,-0.1352 -0.162639,-0.259 -0.174221,-0.2849 -0.06377,-0.1432 -0.09877,-0.47 -0.0606,-0.8741 0.03818,-0.4039 0.138943,-0.8889 0.297311,-1.3861 0.04172,-0.1312 0.08527,-0.2577 0.120252,-0.3523 0.01749,-0.048 0.03325,-0.086 0.04451,-0.1136 0.0027,0 0.006,-0.013 0.0094,-0.016 0.06294,-0.072 0.269289,-0.2081 0.570952,-0.3256 0.30979,-0.1205 0.714365,-0.2345 1.16747,-0.3211 0.332822,-0.064 0.89243,-0.2173 1.281091,-0.3504 0.553983,-0.1896 0.948519,-0.3553 1.207237,-0.5207 0.129366,-0.082 0.229927,-0.162 0.296366,-0.2822 0.06644,-0.1203 0.05208,-0.3128 -0.03693,-0.4205 -0.101099,-0.1216 -0.21757,-0.1746 -0.35223,-0.2366 -0.0056,0 -0.0115,0 -0.01704,0 l 0.101322,-0.072 c 0.498523,-0.3558 0.897973,-0.6798 1.19114,-0.964 0.288262,-0.2794 0.47673,-0.5072 0.552015,-0.7508 0.04498,-0.1149 0.07003,-0.2484 0.0094,-0.3788 -0.0092,-0.02 -0.03691,-0.017 -0.04924,-0.035 0.153615,-0.087 0.359766,-0.2008 0.609774,-0.3294 1.105706,-0.5689 1.592939,-0.8752 1.950516,-1.2527 0.148662,-0.1571 0.243112,-0.3345 0.241447,-0.5275 -0.0013,-0.1502 -0.09514,-0.2826 -0.217775,-0.3787 0.01861,-0.013 0.02758,-0.02 0.04829,-0.036 0.167407,-0.1189 0.401458,-0.2807 0.658062,-0.4516 0.800412,-0.5331 1.432581,-1.0155 1.873822,-1.4278 0.220621,-0.2062 0.393981,-0.3945 0.517928,-0.57 0.123942,-0.1755 0.207638,-0.3377 0.208309,-0.5227 7.27e-4,-0.2043 -0.114165,-0.3918 -0.282163,-0.5151 l 0.509407,-0.5681 c 0.607067,-0.6769 1.107626,-1.2903 1.460993,-1.783 0.176684,-0.2463 0.316523,-0.4613 0.41567,-0.6447 0.09914,-0.1834 0.167592,-0.3211 0.167592,-0.4904 0,-0.1055 -0.02316,-0.2059 -0.08616,-0.2927 -0.06143,-0.083 -0.178715,-0.1462 -0.295418,-0.1411 -0.09855,0 -0.166215,0.044 -0.214935,0.081 0.03298,-0.025 -0.0094,0 -0.05303,0.027 -0.0435,0.023 -0.10536,0.053 -0.180848,0.089 -0.150972,0.072 -0.357464,0.1677 -0.595571,0.2756 -0.476212,0.2158 -1.079091,0.4814 -1.626692,0.7149 -0.200573,0.085 -0.592387,0.3265 -1.219547,0.7186 -0.611776,0.3826 -1.429528,0.907 -2.368078,1.5131 -0.02147,0 -0.04191,0.015 -0.06059,0.027 l -1.550945,1.0139 v -9e-4 c -0.247172,0.1614 -0.352241,0.2264 -0.621135,0.4025 -1.400338,0.9171 -2.696139,1.7556 -3.670001,2.3785 -0.486932,0.3114 -0.893865,0.5691 -1.192088,0.7546 -0.296561,0.1846 -0.512459,0.3089 -0.521715,0.3134 -0.0012,5e-4 -0.0037,0 -0.0048,0 l -9.69e-4,10e-4 c -0.218372,0.065 -0.499709,0.1068 -1.927793,0.2774 -0.255883,0.031 -0.384867,0.041 -0.420402,0.04 -0.0034,0 0.0025,0 -0.0066,-0.013 -0.0313,-0.04 -0.09722,-0.2409 -0.09563,-0.5681 0.0016,-0.3272 0.05124,-0.775 0.151497,-1.3266 0.02787,-0.1533 0.05275,-0.2863 0.07385,-0.3968 0.235415,0.082 0.496047,0.076 0.759376,-0.044 v 0 l 0.222511,-0.1015 c 0.01922,-0.013 0.03708,-0.02 0.05303,-0.034 0.0064,0 0.01706,4e-4 0.02272,0 0.09359,-0.021 0.142435,-0.058 0.217775,-0.1081 0.07534,-0.05 0.163271,-0.115 0.26228,-0.197 0.626504,-0.5212 1.025281,-0.9845 1.175991,-1.4381 0.07535,-0.2268 0.08171,-0.4587 0.0028,-0.6666 -0.0789,-0.2078 -0.236918,-0.3808 -0.446915,-0.517 -0.134234,-0.086 -0.300222,-0.1691 -0.447862,-0.2301 -0.07383,-0.032 -0.141731,-0.056 -0.20452,-0.073 -0.02866,-0.013 -0.05627,-0.013 -0.08995,-0.016 l -0.164743,-0.143 c -0.493062,-0.4263 -1.323165,-0.5964 -2.479806,-0.5965 -0.927436,-10e-5 -1.430044,0.084 -1.937261,0.34 -0.154367,0.078 -0.270315,0.1385 -0.369272,0.2536 -0.09896,0.115 -0.160202,0.2475 -0.272695,0.4792 -0.274517,0.5658 -0.422359,1.0896 -0.714874,2.5253 -0.34726,1.7043 -0.569393,2.4358 -0.985672,3.2646 l -0.119304,0.2378 c -0.07074,-0.048 -0.154654,-0.1041 -0.216829,-0.1506 -0.127337,-0.094 -0.278969,-0.1628 -0.434605,-0.1922 -0.09554,-0.017 -0.230069,-0.025 -0.343708,0.033 -0.113637,0.058 -0.191727,0.1386 -0.332345,0.2728 -0.170051,0.1622 -0.292187,0.2434 -0.331399,0.2575 -0.0033,0 -0.002,4e-4 -0.0038,0 0.0019,10e-4 0.0053,0 -0.0076,-0.013 -0.01068,-0.013 0.0025,0.016 -0.0057,-0.017 -0.0082,-0.036 -0.01992,-0.1204 -0.0284,-0.2764 -0.01696,-0.3113 -0.02685,-0.8993 -0.04262,-2.012 -0.01825,-1.2899 -0.05551,-2.5705 -0.0909,-2.923 -0.240772,-2.397 -0.638888,-3.714 -1.455318,-4.332 -0.126404,-0.095 -0.239429,-0.1733 -0.39105,-0.1884 -0.151592,-0.015 -0.279045,0.041 -0.416616,0.111 -0.516503,0.2635 -0.905743,0.8687 -1.223334,1.7232 -0.31759,0.8546 -0.555621,1.972 -0.69783,3.2999 -0.03014,0.2813 -0.06531,0.5949 -0.07669,0.6912 -0.01496,0.1258 -0.03854,0.4874 -0.0587,0.8503 -0.02003,0.3603 -0.04161,0.7234 -0.0464,0.7895 -0.0076,0.1056 -0.01357,0.417 -0.01799,0.7462 l -0.0048,0.3664 h -0.04071 -9.7e-4 c -0.134043,-0.013 -0.40616,-0.038 -0.579472,-0.065 -0.19203,-0.029 -0.592981,-0.081 -0.906139,-0.115 -0.547488,-0.06 -0.694274,-0.044 -1.26594,-0.3485 -0.571208,-0.3042 -1.544699,-0.9363 -3.594254,-2.2581 h -0.0028 c -1.224365,-0.8138 -2.521142,-1.587 -3.689883,-2.4145 -0.0021,0 -0.0045,0 -0.0066,0 -2.9502884,-1.9244 -3.3430273,-2.1214 -4.6281624,-2.6976 -0.4282321,-0.1919 -0.8293533,-0.3679 -1.1324356,-0.4972 -0.1515413,-0.065 -0.2785373,-0.1176 -0.3730601,-0.1551 -0.047262,-0.019 -0.086593,-0.034 -0.1183558,-0.046 -0.031764,-0.013 -0.026726,-0.02 -0.1022603,-0.029 -0.00722,-9e-4 -0.014491,0 -0.021778,0 z m 18.9900744,1.0207 c -0.006,0.013 0.01231,0.021 0.01325,0.013 0.174401,0.1675 0.392408,0.5773 0.573793,1.159 0.181387,0.5817 0.337894,1.3348 0.450702,2.2052 0.10716,0.8268 0.153498,3.2486 0.07764,4.1065 -0.08877,1.004 -0.281113,1.7943 -0.499938,2.4201 0.09422,-1.233 0.140447,-3.0192 0.06628,-4.1084 -0.03402,-0.4996 -0.106267,-1.2595 -0.161912,-1.7034 -0.05405,-0.431 -0.09836,-0.9346 -0.09848,-1.049 -2.42e-4,-0.2267 -0.03671,-0.5516 -0.08237,-0.839 -0.02284,-0.1436 -0.04838,-0.276 -0.07385,-0.3815 -0.01272,-0.053 -0.02441,-0.098 -0.03977,-0.1402 -0.0077,-0.021 -0.01608,-0.042 -0.02936,-0.066 -0.01326,-0.024 -0.02301,-0.058 -0.09184,-0.1006 -0.09153,-0.057 -0.266792,-0.066 -0.370221,0 -0.103428,0.072 -0.15155,0.1643 -0.204519,0.2803 -0.105943,0.2319 -0.208392,0.5895 -0.353176,1.16 -0.406462,1.6013 -0.531222,2.4796 -0.708246,4.987 -0.01478,0.2093 -0.03726,0.487 -0.04924,0.6089 -0.007,0.07 -0.01773,0.2874 -0.02745,0.4469 -0.15744,-0.5578 -0.220445,-1.0029 -0.171381,-1.6656 0.02628,-0.355 0.233524,-1.6994 0.454489,-2.9939 0.110487,-0.6472 0.224769,-1.2884 0.32193,-1.8018 0.09717,-0.5136 0.182408,-0.9153 0.215883,-1.0255 0.154676,-0.5095 0.53551,-1.2361 0.74328,-1.4686 z m -17.1825327,0.9364 c 0.5797742,0.3539 1.4866617,0.9245 2.8471856,1.7887 l 1.3379031,0.8493 c 0.138999,0.1042 0.189073,0.1464 0.210201,0.1648 0.02188,0.019 0.05165,0.044 0.104157,0.076 0.08032,0.05 0.16395,0.1042 0.231032,0.1515 0.06707,0.048 0.12689,0.097 0.121198,0.09 0.02971,0.029 0.06141,0.053 0.09374,0.075 0.0065,0.019 0.01325,0.035 0.02082,0.052 0.02098,0.045 0.04806,0.094 0.08332,0.1553 0.07053,0.1217 0.171797,0.2819 0.293523,0.4688 0.06126,0.093 0.152322,0.2182 0.222512,0.3227 -0.307974,-0.2579 -0.628753,-0.5582 -0.897617,-0.7338 v 0.1028 c 2.1e-4,-0.057 -0.0215,-0.1108 -0.0606,-0.1523 -0.0042,0 -0.01006,-0.013 -0.0142,-0.013 h 0.0048 c -0.0093,-0.013 -0.01953,-0.016 -0.03031,-0.023 -0.04501,-0.029 -0.08347,-0.05 -0.112677,-0.068 -6.31e-4,-3e-4 -0.0012,-7e-4 -0.0019,-10e-4 l -0.0284,-0.017 h -9.69e-4 c -0.600633,-0.3708 -1.2331521,-0.6752 -1.9050648,-0.9044 -0.1704135,-0.058 -0.3357987,-0.1108 -0.4677451,-0.1495 -0.065973,-0.019 -0.1230282,-0.035 -0.1704337,-0.048 -0.019048,0 -0.041449,0 -0.055864,-0.013 -0.00727,0 -0.012888,-0.013 -0.025563,-0.021 -0.039554,-0.037 -0.098314,-0.098 -0.1675934,-0.1733 -0.1385561,-0.151 -0.3202868,-0.364 -0.5084598,-0.5975 -0.3511856,-0.4358 -0.8207659,-1.016 -1.1229691,-1.3891 z m 40.7601117,0.3126 c -0.02321,0.028 -0.03573,0.048 -0.05965,0.077 -0.389753,0.4795 -0.927175,1.1553 -1.198716,1.5083 -0.354562,0.4608 -0.535577,0.5954 -0.584207,0.6069 -0.814189,0.1917 -1.800543,0.6306 -2.62373,1.1221 -0.03999,0 -0.07862,0.015 -0.11173,0.038 l -0.305835,0.2074 v 0 c -0.03059,0.02 -0.05181,0.038 -0.06534,0.048 -0.0025,0 -0.02248,0.013 -0.05682,0.036 -9.69e-4,5e-4 -0.0019,0 -0.0028,0 -0.03988,0.028 -0.07083,0.057 -0.07669,0.061 -0.147989,0.1068 -0.306606,0.248 -0.462065,0.3795 l 0.615454,-0.9173 c 0.04105,-0.038 0.10053,-0.089 0.240502,-0.1827 l 0.358856,-0.2387 c 0.05596,-0.037 0.09187,-0.097 0.09753,-0.1647 v 0.092 l 1.353052,-0.8606 c 1.310811,-0.8342 2.245313,-1.4224 2.855708,-1.7953 0.01204,-0.013 0.01472,-0.013 0.02652,-0.016 z m -16.855872,1.1419 h 0.249023 c 0.954484,0 2.515988,0.083 3.145445,0.1694 h 9.7e-4 l 0.372112,0.052 c 0.01176,0.046 0.02424,0.094 0.04262,0.1448 0.109297,0.3098 0.125755,0.7331 0.05208,1.1363 -0.07368,0.4031 -0.238416,0.7856 -0.444074,1.0198 -0.03602,0.041 -0.05275,0.078 -0.07764,0.1122 l -0.254703,-0.1311 -9.69e-4,-10e-4 c -0.587275,-0.3043 -1.833565,-1.2981 -3.016672,-2.4363 v -10e-4 z m -22.2188418,1.4164 c 0.0016,-4e-4 0.020578,0 0.1344529,0.032 0.1138756,0.038 0.300425,0.115 0.5917836,0.2376 0.7547303,0.3186 1.3380803,0.6425 1.9031723,1.0426 4e-6,0 0.0027,9e-4 0.0028,9e-4 0.07446,0.066 0.164184,0.137 0.321931,0.2529 0.213918,0.1571 0.789928,0.6371 1.293399,1.0717 0.04858,0.042 0.07982,0.07 0.126878,0.1122 -0.337043,-0.086 -0.687812,-0.1449 -1.049113,-0.1449 -0.173532,0 -0.278368,0 -0.333291,-0.016 -0.04839,-0.013 -0.05715,-0.017 -0.08332,-0.036 -0.0019,0 -0.0038,0 -0.0057,0 l -1.111606,-0.9203 c -0.6734464,-0.5569 -1.4161466,-1.2086 -1.6068086,-1.4043 l -0.2054669,-0.2111 c 0.00285,0 0.012279,-0.013 0.013253,-0.013 6.303e-4,-3e-4 0.00126,-7e-4 0.00189,-9e-4 0.00189,-3e-4 0.00379,-7e-4 0.00568,0 z m 21.5835038,0.084 c -0.0262,0.2599 -0.05843,0.5658 -0.100368,0.8058 -0.198796,1.1381 -0.361617,3.4741 -0.362645,5.1273 -6.2e-5,0.1041 -0.0046,0.1679 -0.0066,0.2565 -0.04973,-0.075 -0.10171,-0.145 -0.142975,-0.2225 -0.07003,-0.1311 -0.224158,-0.5114 -0.316249,-0.7924 l -0.155283,-0.4735 0.213988,-0.8844 v -9e-4 c 0.374094,-1.549 0.633858,-2.6884 0.841751,-3.6899 0.01006,-0.048 0.0184,-0.08 0.0284,-0.1258 z m 0.629658,0.097 c 0.02521,0.074 0.05731,0.082 0.07764,0.1772 0.0715,0.3308 0.11081,0.7789 0.110784,1.3312 -6.4e-5,1.2039 -0.100358,2.1004 -0.491417,4.3933 -0.05463,0.3205 -0.107268,0.5971 -0.149602,0.7897 -2.83e-4,0 -6.79e-4,0 -9.7e-4,0 -7.27e-4,-8e-4 -0.0021,0 -0.0028,0 -0.0052,0 -0.007,-0.013 -0.01041,-0.015 -3.51e-4,0 -8.72e-4,0 -9.69e-4,-0.013 -8.23e-4,-0.031 -2.91e-4,-0.075 9.69e-4,-0.1285 0.0024,-0.1068 0.0093,-0.2464 0.01988,-0.3911 0.0217,-0.2965 0.0655,-0.9088 0.09659,-1.3605 0.03101,-0.4508 0.06585,-0.939 0.07764,-1.072 0.01311,-0.1474 0.03761,-0.4916 0.05492,-0.7754 0.01709,-0.2799 0.04112,-0.5992 0.05018,-0.6817 0.0142,-0.1298 0.04646,-0.6161 0.07764,-1.1391 0.02543,-0.4265 0.06156,-0.8355 0.08995,-1.1191 z m -7.010497,0.1535 c 0.03937,0.6511 0.08611,1.1875 0.105104,2.0859 0.02922,1.3821 -0.01231,2.5431 -0.116464,3.438 -0.104225,0.8949 -0.283664,1.5279 -0.474374,1.8161 -0.0068,0.013 -0.01812,0.021 -0.02651,0.033 -0.0068,-0.088 -0.01716,-0.134 -0.01514,-0.2899 0.0036,-0.2694 0.02135,-0.6376 0.05397,-1.1154 0.06859,-1.0045 0.09135,-1.4581 0.164752,-3.2619 0.02913,-0.716 0.07878,-1.5145 0.104158,-1.7261 0.01865,-0.1554 0.12877,-0.6059 0.20452,-0.9789 z m 22.18381,0 c -0.06108,0.072 -0.13088,0.1501 -0.308674,0.3228 -0.280736,0.2729 -1.012038,0.91 -1.603021,1.3939 l -0.985673,0.8066 c -0.01217,0 -0.02024,0.013 -0.0284,0.015 -6.31e-4,2e-4 -0.01028,0 -0.02367,0 -0.02692,0 -0.07091,0.015 -0.124036,0.021 -0.106241,0.015 -0.249645,0.029 -0.399573,0.04 -0.0019,3e-4 -0.0038,7e-4 -0.0057,9e-4 -0.05843,0 -0.105402,0.013 -0.151496,0.015 -0.217893,0.019 -0.422675,0.046 -0.617349,0.083 -0.02843,0 -0.05083,0.013 -0.0729,0.013 -0.0021,7e-4 -0.0045,0 -0.0066,0 -0.02798,0 -0.05351,0.013 -0.08048,0.02 0.334302,-0.3027 0.728476,-0.6518 1.102136,-0.961 0.763695,-0.6319 1.4219,-1.0306 2.420154,-1.463 0.530637,-0.2297 0.781785,-0.3056 0.885308,-0.3161 z m -14.200897,0.4373 c 0.508516,0.5552 0.714732,1.4181 0.528345,2.533 -0.08426,0.5039 -0.370285,1.5238 -0.71298,2.5233 -0.04455,0.1298 -0.07698,0.269 -0.122144,0.4213 -0.01122,-0.2557 -0.04214,-0.3441 -0.04166,-0.9118 8.25e-4,-1.0026 0.05516,-2.1222 0.13445,-3.0366 0.03965,-0.4571 0.08531,-0.8634 0.133504,-1.175 0.02957,-0.191 0.05292,-0.2501 0.08048,-0.3542 z m -18.76567,0.1526 c 1.46684,0.6674 4.682752,2.7547 5.90836,3.8404 0.1898,0.1681 0.498021,0.4286 0.693097,0.587 0.388096,0.315 0.855581,0.8748 0.945905,1.0738 0.02729,0.06 0.0753,0.2779 0.07575,0.3824 6.3e-4,0.1472 -0.02761,0.2183 -0.05776,0.2548 -0.03015,0.037 -0.082,0.069 -0.213988,0.086 -0.09256,0.013 -0.11445,0.013 -0.184636,-0.013 -0.07019,-0.02 -0.190587,-0.074 -0.402412,-0.1819 l -9.7e-4,-10e-4 c -0.763845,-0.3837 -2.023765,-1.2584 -2.879378,-2.0063 -0.223944,-0.1958 -0.979697,-0.9111 -1.655098,-1.5672 -0.98649,-0.9579 -1.341261,-1.3402 -1.851097,-1.9978 -0.157143,-0.2026 -0.248899,-0.3041 -0.377795,-0.463 z m 28.395162,0.4146 c -0.150643,0.1938 -0.256491,0.3258 -0.412826,0.5303 -0.330054,0.4317 -1.059692,1.2072 -1.839736,1.9779 -0.238065,0.2348 -0.437661,0.4193 -0.656169,0.6277 -0.635556,0.6034 -1.260783,1.1712 -1.683503,1.498 -0.01568,0.013 -0.0297,0.025 -0.04166,0.042 -0.707422,0.565 -1.315405,0.9565 -1.96756,1.2753 -0.141088,0.069 -0.279316,0.1313 -0.383475,0.1742 -0.05207,0.021 -0.09557,0.04 -0.124036,0.049 -0.0044,0 -0.005,8e-4 -0.0085,0 -0.116774,-0.013 -0.196382,-0.027 -0.216828,-0.037 -0.02287,-0.013 -0.02284,-0.013 -0.05965,-0.068 -0.106105,-0.174 -0.09723,-0.3923 0.0928,-0.7224 0.190022,-0.3302 0.564472,-0.7339 1.112551,-1.1713 0.202114,-0.1612 0.525584,-0.4286 0.72529,-0.5984 0.614393,-0.5221 1.630031,-1.2498 2.666336,-1.9287 v 9e-4 c 0.008,0 0.01485,-0.013 0.02178,-0.015 v 0 c 1.029597,-0.6737 2.076121,-1.2954 2.775227,-1.6353 z m -29.828697,1.994 c 0.371901,-3e-4 1.105444,0.09 1.309498,0.1602 0.628073,0.213 1.553329,0.7873 2.17492,1.2734 -0.172783,-0.042 -0.359103,-0.09 -0.483841,-0.1081 h -0.0019 c -0.225418,-0.036 -0.481945,-0.037 -0.681735,0 l -0.199787,0.031 -0.827548,-0.498 c -0.486975,-0.2932 -1.034268,-0.6391 -1.195875,-0.7527 -0.04941,-0.044 -0.07633,-0.07 -0.10605,-0.1006 0.0066,-10e-5 0.0052,0 0.01231,0 z m 31.357865,0.3315 c 0.005,0 0.03788,6e-4 0.04924,9e-4 l -0.08331,0.065 c -0.0061,0 -0.174811,0.119 -0.384422,0.2529 -0.209611,0.1338 -0.479947,0.3028 -0.758429,0.4744 l -0.922235,0.5679 h -0.06912 l -0.09848,-0.021 c -0.322462,-0.073 -0.783173,0 -1.260259,0.1244 0.128404,-0.1055 0.232577,-0.2105 0.362643,-0.2982 0.260538,-0.1757 0.478874,-0.3118 0.69215,-0.4394 0.131502,-0.074 0.258985,-0.1475 0.387262,-0.2129 0.297455,-0.1519 0.525003,-0.2488 0.74612,-0.323 0.287194,-0.086 0.57605,-0.1339 0.924129,-0.1609 0.161641,-0.013 0.299275,-0.021 0.414721,-0.027 z m -28.526775,1.7261 c 0.382587,0.013 0.866154,0.1312 1.580297,0.411 0.401887,0.157 0.564726,0.2518 0.890988,0.5169 0.403973,0.3283 1.004581,0.7549 1.532008,1.1031 0.262626,0.1733 0.505724,0.3256 0.699723,0.4384 -1.296815,-0.488 -2.326078,-0.7868 -3.027087,-0.8228 l -0.379689,-0.02 -0.570004,-0.4762 c -0.375957,-0.3152 -0.688912,-0.5953 -0.904245,-0.8059 -0.106443,-0.1042 -0.188209,-0.1915 -0.239553,-0.2527 0.01055,-0.013 0.01701,-0.019 0.0284,-0.027 0.05716,-0.041 0.07187,-0.048 0.115517,-0.057 0.04365,-0.013 0.126904,-0.013 0.273641,-0.013 z m 25.780901,0.3522 c 0.174635,0 0.304469,0.017 0.376848,0.042 0.009,0 0.0094,0 0.01609,0.013 -0.01739,0.021 -0.08168,0.1231 -0.276482,0.3086 -0.212496,0.2029 -0.644848,0.5861 -0.946853,0.8389 l -0.50183,0.4195 -0.42135,0.025 c -0.638672,0.04 -1.593622,0.2884 -2.621836,0.6694 -0.156814,0.058 -0.155353,0.056 -0.281215,0.1028 0.0056,0 0.01339,-0.013 0.01893,-0.013 0.444565,-0.2353 1.249611,-0.8012 1.852044,-1.2773 0.02367,-0.013 0.04577,-0.02 0.06533,-0.037 0.606463,-0.4902 1.175475,-0.7697 2.018689,-0.9893 0.2299,-0.06 0.487048,-0.095 0.701619,-0.1016 z m -13.95282,0.6278 0.01041,0.1705 c 0.04211,0.7128 0.07146,1.0166 0.1354,1.4184 0.101495,0.6376 0.03163,1.3711 -0.144868,1.7828 -0.09317,0.2174 -0.393639,0.5415 -0.581368,0.6373 -0.07708,0.04 -0.246869,0.082 -0.414721,0.095 -0.167475,0.013 -0.340796,0 -0.419455,-0.028 h -9.7e-4 c -0.0013,-6e-4 -0.07314,-0.038 -0.142975,-0.088 -0.07017,-0.052 -0.148903,-0.1163 -0.2102,-0.177 -0.285685,-0.285 -0.34013,-0.4476 -0.30394,-0.9204 0.05173,-0.6757 0.415776,-1.3097 1.325593,-2.206 0.169438,-0.1671 0.3503,-0.3371 0.503726,-0.4763 0.113637,-0.1028 0.180913,-0.1578 0.243341,-0.2084 z m 1.859619,0.099 c 0.05104,0.042 0.09175,0.073 0.148656,0.1217 0.809137,0.6748 1.375371,1.3391 1.678769,1.9296 0.303401,0.5906 0.345781,1.0893 0.157178,1.498 -0.118925,0.2577 -0.272958,0.4041 -0.55675,0.5226 -0.335967,0.1405 -0.896833,0 -1.158947,-0.2926 -0.422294,-0.481 -0.56235,-1.1728 -0.399572,-2.2649 0.04241,-0.2845 0.09027,-0.8181 0.110784,-1.2138 0.0061,-0.1177 0.01298,-0.2033 0.01988,-0.3001 z m -12.144331,1.3662 h 0.0019 c 0.09423,0 0.197406,0.013 0.318142,0.027 h 9.69e-4 c 0.605044,0.068 1.362784,0.2682 2.788481,0.748 0.02412,0.013 0.02228,0.013 0.04545,0.016 -0.0031,-2e-4 -0.02575,0 -0.02556,0 h -9.7e-4 c -0.04695,-0.013 -0.237415,-0.055 -0.408093,-0.095 -0.189873,-0.045 -0.425503,-0.08 -0.589888,-0.08 -0.04569,0 -0.279165,-0.035 -0.549175,-0.097 -0.270011,-0.061 -0.597427,-0.1445 -0.916554,-0.2329 -0.309746,-0.085 -0.607516,-0.1755 -0.842699,-0.2538 0.06393,0 0.09053,-0.033 0.178008,-0.029 z m 22.771806,0.3559 c -0.577421,0.1922 -1.630787,0.4891 -2.243095,0.5985 h -9.69e-4 c -0.143161,0.025 -0.411066,0.042 -0.657115,0.06 0.01709,0 0.01368,0 0.03124,-0.013 0.709495,-0.2316 1.527974,-0.4728 1.763041,-0.5237 0.411963,-0.089 0.796571,-0.1204 1.106869,-0.1244 z m -18.1559,0.965 c 0.0089,0.013 0.01311,0.013 0.02367,0.023 0.05398,0.054 0.126931,0.1351 0.199784,0.2224 0.330519,0.3989 0.465852,0.7106 0.465852,0.8513 0,0.07 -0.01339,0.098 -0.05682,0.1363 -0.04345,0.04 -0.133192,0.085 -0.280268,0.1137 -0.151348,0.028 -0.294108,0.044 -0.391051,0.046 -0.01431,4e-4 -0.01723,-6e-4 -0.02936,-9e-4 -0.0062,-0.025 -0.01231,-0.049 -0.01799,-0.077 -0.08066,-0.3958 -0.353175,-0.8775 -0.647645,-1.2006 0.143665,-0.015 0.286166,-0.023 0.425136,-0.053 0.09718,-0.02 0.19159,-0.04 0.264171,-0.053 0.01815,0 0.02954,0 0.04451,-0.013 z m 13.550408,0.2784 c 0.0085,0 0.01623,0 0.02651,0.013 0.0395,0.013 0.08811,0.021 0.143922,0.035 0.111623,0.025 0.251132,0.057 0.394838,0.085 l 0.109837,0.021 c -0.325291,0.3245 -0.582595,0.7978 -0.680786,1.266 l -0.02272,0.1054 -0.07575,-9e-4 h -9.7e-4 c -0.246368,0 -0.42138,-0.052 -0.521716,-0.1096 -0.10051,-0.057 -0.133085,-0.1081 -0.145815,-0.1942 -0.02546,-0.1722 0.12589,-0.5585 0.571898,-1.03 0.136609,-0.1445 0.216124,-0.1891 0.200734,-0.1885 z m -7.543575,1.5178 c 0.01709,0.1405 0.03545,0.2941 0.0587,0.5084 0.03762,0.3468 0.10198,0.7217 0.165699,1.0047 0.03186,0.1414 0.06229,0.2577 0.09469,0.3474 0.0162,0.045 0.02532,0.078 0.06723,0.1338 0.02094,0.027 0.05295,0.082 0.16191,0.096 0.05449,0.013 0.120089,-0.013 0.16002,-0.04 0.03993,-0.028 0.05945,-0.058 0.07196,-0.081 0.03844,-0.069 0.04417,-0.1082 0.06155,-0.1752 0.01738,-0.066 0.03579,-0.1474 0.05492,-0.2404 0.03825,-0.1862 0.07935,-0.4199 0.118358,-0.6618 0.05565,-0.3454 0.08134,-0.6179 0.106997,-0.8855 0.451092,0.3284 1.002947,0.5645 1.882342,0.8105 -0.04349,0.042 -0.07552,0.073 -0.12877,0.1244 -0.216161,0.2064 -0.504185,0.478 -0.792514,0.7481 -0.288333,0.2698 -0.577147,0.5393 -0.797251,0.7413 -0.07894,0.073 -0.135526,0.1217 -0.193158,0.1742 -0.01457,-0.02 -0.02651,-0.042 -0.04262,-0.062 -0.07897,-0.1015 -0.164892,-0.1975 -0.27364,-0.2688 -0.03021,-0.02 -0.06064,-0.041 -0.107945,-0.058 -0.04729,-0.019 -0.117883,-0.029 -0.178955,-0.016 -0.122144,0.025 -0.172854,0.083 -0.249022,0.1477 -0.09371,0.078 -0.167914,0.1839 -0.235767,0.2877 l -0.997035,-0.9438 -0.9175,-0.8693 0.188424,-0.057 c 0.809249,-0.2454 1.270292,-0.4444 1.679715,-0.7365 z m 4.400023,1.0387 c 0.04405,0.019 0.09806,0.042 0.166648,0.074 0.154356,0.073 0.357631,0.1773 0.573791,0.2916 0.432322,0.2286 0.920266,0.5031 1.171257,0.6674 1.870946,1.2251 3.174882,2.7891 3.729652,4.4418 0.520731,1.5511 0.411544,3.1721 -0.298257,4.5382 -0.788937,1.5187 -2.305937,2.8898 -4.208761,3.7789 -0.75614,0.3533 -1.572843,0.5214 -3.001522,0.6069 -3.128631,0.1873 -5.474153,-0.023 -6.578733,-0.5235 v 0 c -2.542674,-1.1571 -4.294093,-2.9837 -4.829893,-4.9758 -0.125944,-0.4683 -0.130664,-0.534 -0.130664,-1.4562 0,-0.9121 0.0053,-0.9907 0.124036,-1.4288 0.367353,-1.356 0.943273,-2.3437 2.007328,-3.4343 0.586859,-0.6016 1.149748,-1.0628 1.865298,-1.5301 0.249752,-0.1632 0.636629,-0.3902 0.968631,-0.5728 0.166002,-0.09 0.319566,-0.1718 0.433659,-0.2282 0.04081,-0.02 0.06875,-0.033 0.09753,-0.046 0.04136,0.033 0.09175,0.073 0.158125,0.1271 0.149946,0.1244 0.352491,0.2986 0.568111,0.4896 0.883789,0.7828 1.634893,1.4176 2.197646,1.8595 0.281377,0.2211 0.514899,0.3932 0.698778,0.5142 0.09193,0.061 0.171159,0.1081 0.242395,0.1439 0.07123,0.035 0.123306,0.069 0.230084,0.069 0.109541,0 0.166249,-0.036 0.23766,-0.074 0.0714,-0.04 0.148164,-0.089 0.235766,-0.1534 0.175206,-0.1271 0.390872,-0.3054 0.641966,-0.5283 0.502189,-0.4459 1.142952,-1.0684 1.834054,-1.7896 0.250779,-0.2615 0.486327,-0.5002 0.66185,-0.6713 0.08471,-0.082 0.153614,-0.1473 0.203572,-0.1922 z"
       style="fill:#888a85;fill-opacity:1;stroke-width:0.07324236" />
    <text
       xml:space="preserve"
       style="font-style:normal;font-weight:normal;font-size:19.0358963px;line-height:0%;font-family:sans-serif;letter-spacing:0px;word-spacing:0px;fill:#555753;fill-opacity:1;stroke:none;stroke-width:0.47046071px;stroke-linecap:butt;stroke-linejoin:miter;stroke-opacity:1"
       x="53.591648"
       y="1114.2424"
       id="text4225"><tspan
         id="tspan4227"
         x="53.591648"
         y="1114.2424"
         style="font-style:normal;font-variant:normal;font-weight:normal;font-stretch:normal;font-size:18.81842804px;line-height:1.25;font-family:Montserrat;-inkscape-font-specification:Montserrat;fill:#555753;fill-opacity:1;stroke-width:0.47046071px">VERIFIER</tspan></text>
    <g
       id="g4488"
       transform="matrix(0.20656816,0,0,0.20656816,54.349426,1084.3878)">
      <g
         id="layer1-0"
         transform="translate(-266.55899,-345.34488)">
        <path
           style="fill:#3c6eb4"
           id="path11"
           d="m 316.7736,397.581 c 0,0 0,0 -20.53889,0 0.3327,4.45245 3.92157,7.77609 8.70715,7.77609 3.38983,0 6.31456,-1.39616 8.64094,-3.65507 0.46553,-0.46679 0.99726,-0.59962 1.59519,-0.59962 0.79781,0 1.59561,0.39932 2.12692,1.06388 0.3327,0.46553 0.53216,0.99726 0.53216,1.52857 0,0.73118 -0.3327,1.52857 -0.93106,2.12734 -2.7919,2.99052 -7.51086,4.98503 -12.16403,4.98503 -8.44149,0 -15.22074,-6.77967 -15.22074,-15.22158 0,-8.44149 6.58022,-15.22074 15.02171,-15.22074 8.37529,0 14.62323,6.51317 14.62323,15.08749 0,1.26418 -1.12924,2.12861 -2.39258,2.12861 z m -12.23065,-11.76512 c -4.45329,0 -7.51085,2.92473 -8.17499,7.17731 10.03626,0 16.35083,0 16.35083,0 -0.59836,-4.05355 -3.78874,-7.17731 -8.17584,-7.17731 z" />
        <path
           style="fill:#3c6eb4"
           id="path13"
           d="m 375.46344,410.80807 c -8.44106,0 -15.22074,-6.77968 -15.22074,-15.22159 0,-8.44149 6.77968,-15.22074 15.22074,-15.22074 8.44234,0 15.22159,6.77925 15.22159,15.22074 -4.2e-4,8.44149 -6.77968,15.22159 -15.22159,15.22159 z m 0,-24.65992 c -5.31688,0 -8.77377,4.25427 -8.77377,9.43833 0,5.18364 3.45689,9.43833 8.77377,9.43833 5.31731,0 8.77504,-4.25469 8.77504,-9.43833 -4.2e-4,-5.18406 -3.45773,-9.43833 -8.77504,-9.43833 z" />
        <path
           style="fill:#3c6eb4"
           id="path15"
           d="m 412.66183,380.36574 c -4.45963,0 -7.40966,1.319 -10.01391,4.62956 l -0.24036,-1.53995 v 0 c -0.20198,-1.60743 -1.57326,-2.84926 -3.23382,-2.84926 -1.80139,0 -3.26206,1.459 -3.26206,3.26081 0,0.003 0,0.005 0,0.008 v 0 0.003 0 23.40712 c 0,1.79464 1.46194,3.25743 3.257,3.25743 1.79465,0 3.25744,-1.46279 3.25744,-3.25743 v -12.56209 c 0,-5.71621 4.98502,-8.57432 10.23613,-8.57432 1.59519,0 2.85726,-1.32953 2.85726,-2.92515 0,-1.59561 -1.26207,-2.85726 -2.85768,-2.85726 z" />
        <path
           style="fill:#3c6eb4"
           id="path17"
           d="m 447.02614,395.58648 c 0.0666,-8.17541 -5.78326,-15.22074 -15.222,-15.22074 -8.44192,0 -15.28779,6.77925 -15.28779,15.22074 0,8.44191 6.64684,15.22159 14.68985,15.22159 4.01434,0 7.62682,-2.06621 9.23846,-4.22518 l 0.79359,2.01434 v 0 c 0.42589,1.13177 1.5176,1.93717 2.7978,1.93717 1.65001,0 2.98756,-1.33671 2.99009,-2.98545 v 0 -7.80687 0 z m -15.222,9.43833 c -5.31773,0 -8.77419,-4.25469 -8.77419,-9.43833 0,-5.18406 3.45604,-9.43833 8.77419,-9.43833 5.3173,0 8.77419,4.25427 8.77419,9.43833 0,5.18364 -3.45689,9.43833 -8.77419,9.43833 z" />
        <path
           style="fill:#3c6eb4"
           id="path19"
           d="m 355.01479,368.3337 c 0,-1.7938 -1.46194,-3.18997 -3.25659,-3.18997 -1.79422,0 -3.25743,1.39659 -3.25743,3.18997 v 17.1499 c -1.66097,-3.05756 -5.25026,-5.11786 -9.50495,-5.11786 -8.64052,0 -14.42336,6.51318 -14.42336,15.22074 0,8.70757 5.98229,15.22159 14.42336,15.22159 3.76555,0 7.03057,-1.55429 8.98587,-4.25554 l 0.72317,1.83428 c 0.44782,1.25912 1.64917,2.16024 3.06051,2.16024 1.78621,0 3.24984,-1.45435 3.24984,-3.24815 0,-0.005 0,-0.009 0,-0.0139 v 0 -38.95128 h -4.2e-4 z m -15.22116,36.69111 c -5.31731,0 -8.70715,-4.25469 -8.70715,-9.43833 0,-5.18406 3.38984,-9.43833 8.70715,-9.43833 5.31773,0 8.70714,4.0544 8.70714,9.43833 0,5.38309 -3.38941,9.43833 -8.70714,9.43833 z" />
        <path
           style="fill:#3c6eb4"
           id="path21"
           d="m 287.21553,365.34023 c -0.59414,-0.0877 -1.19966,-0.13198 -1.80097,-0.13198 -6.73118,0 -12.20746,5.4767 -12.20746,12.20788 v 3.8132 h -3.98903 c -1.46237,0 -2.65908,1.19671 -2.65908,2.65781 0,1.46321 1.19671,2.93738 2.65908,2.93738 h 3.98819 v 20.46004 c 0,1.79464 1.46236,3.25743 3.25658,3.25743 1.79507,0 3.25744,-1.46279 3.25744,-3.25743 v -20.46004 h 4.40986 c 1.46194,0 2.65823,-1.47417 2.65823,-2.93738 0,-1.46152 -1.19629,-2.65823 -2.65823,-2.65823 h -4.40733 v -3.8132 c 0,-3.13852 2.55323,-6.11469 5.69175,-6.11469 0.28294,0 0.56757,0.0211 0.84672,0.062 1.78031,0.26355 3.4358,-0.54269 3.70019,-2.32342 0.2627,-1.77904 -0.96606,-3.43538 -2.74594,-3.69935 z" />
      </g>
      <path
         style="fill:#294172;enable-background:new"
         id="path2391"
         d="m 181.98344,61.675273 h 2.81558 v 0.37898 h -1.18152 v 2.94935 h -0.45254 v -2.94935 h -1.18152 v -0.37898 m 3.26144,0 h 0.67101 l 0.84937,2.26496 0.85381,-2.26496 h 0.67102 v 3.32833 h -0.43917 v -2.9226 l -0.85828,2.28279 h -0.45255 l -0.85827,-2.28279 v 2.9226 h -0.43694 v -3.32833" />
    </g>
  </g>
</svg>
