<svg width="170" height="40" version="1.1" viewBox="0 0 170 40" xmlns="http://www.w3.org/2000/svg">
 <path d="m4.957 2.5254c-0.06692 0-0.12886 0.042656-0.16602 0.097656-0.03725 0.023-0.086961 0.012828-0.10938 0.048828-0.06518 0.1068-0.058129 0.20488-0.042969 0.29688 0.03031 0.1837 0.1242 0.38586 0.26953 0.63086 0.33291 0.5606 0.82454 1.1866 1.7461 2.2324l0.52734 0.5957-0.039062 0.035156c-0.1411 0.1312-0.25558 0.28882-0.25195 0.48242 0.0036 0.1936 0.099506 0.35026 0.23633 0.53906 0.22379 0.3088 0.65061 0.69734 1.1816 1.1191 0.53103 0.4219 1.1626 0.86673 1.7734 1.2363 0.0542 0.033 0.0897 0.056891 0.13672 0.087891-0.0513 0.028-0.10717 0.04975-0.14844 0.09375-0.06846 0.076-0.10998 0.18451-0.10937 0.28711 0.0012 0.2053 0.11235 0.36362 0.27148 0.54492 0.16456 0.1875 0.42059 0.37116 0.73438 0.57226 9.7e-4 7e-4 3e-3 0 0.0039 0 0.18596 0.1339 0.37905 0.24308 0.54492 0.33398 0.29436 0.1615 0.68827 0.36193 0.89844 0.45703 0.16986 0.077 0.34065 0.16797 0.40039 0.20117-0.04664 0.086-0.09311 0.1667-0.0918 0.2832 0.0015 0.1416 0.06329 0.25445 0.14453 0.37305 0.08125 0.1189 0.19044 0.24266 0.33203 0.38086 0.28319 0.2765 0.69228 0.60453 1.2246 0.99023l0.25 0.18164c-0.05543 0.021-0.12051 0.03555-0.16992 0.06055-0.06532 0.034-0.12297 0.07043-0.17578 0.11523-0.05281 0.045-0.10756 0.09085-0.13867 0.18945-0.05365 0.169 0.0346 0.33631 0.14453 0.44531 0.10992 0.1096 0.25763 0.20102 0.44922 0.29492 0.51497 0.2522 1.6038 0.5942 2.2617 0.7168 0.15469 0.028 0.30277 0.06184 0.41211 0.08984 0.05466 0.015 0.09869 0.02711 0.12695 0.03711 0.01272 0 0.02027 0.01172 0.02344 0.01172 0.03116 0.024 0.05498 0.03483 0.08203 0.04883 0.03693 0.017 0.08007 0.03764 0.12891 0.05664 0.09766 0.04 0.21941 0.08195 0.3457 0.12305 0.28037 0.09 0.42334 0.15809 0.51953 0.24609s0.17191 0.21752 0.27734 0.47852c0.27822 0.6883 0.33889 1.009 0.31836 1.6895-0.01689 0.5596-0.01231 0.55011-0.16016 0.84961-0.06751 0.1369-0.37964 0.61001-0.6543 0.97461-0.85099 1.1294-1.6559 2.6375-1.9629 3.6973-0.54359 1.8765-0.17221 4.4611 0.875 6.0508 0.75711 1.1492 2.4421 2.5636 3.9141 3.3066 0.80725 0.4075 2.2329 0.70923 3.9375 0.86523 0.0012 4e-4 0.0026 7e-4 0.0039 0h2.0937c2.3338-0.017 2.9608-0.08579 4.4902-0.49219 0.95148-0.2528 1.7419-0.66352 2.8105-1.4531 0.67207-0.4967 1.8354-1.6547 2.2129-2.2227 0.72296-1.0875 1.101-2.5167 1.1074-4.1191 0.0054-1.3697-0.17405-2.0881-0.88281-3.5137-0.47646-0.9583-0.77001-1.431-1.3984-2.2559-0.11093-0.1456-0.22401-0.30465-0.31445-0.43945-0.09044-0.1352-0.16225-0.25926-0.17383-0.28516-0.06377-0.1432-0.09872-0.46895-0.06055-0.87305 0.03818-0.4039 0.13851-0.88952 0.29687-1.3867 0.04172-0.1312 0.08611-0.25696 0.12109-0.35156 0.01749-0.048 0.03366-0.08568 0.04492-0.11328 0.0027 0 0.0064-0.01458 0.0098-0.01758 0.06294-0.072 0.26865-0.20672 0.57031-0.32422 0.30979-0.1205 0.71486-0.23567 1.168-0.32226 0.33282-0.064 0.89259-0.21651 1.2812-0.34961 0.55398-0.1896 0.94831-0.35608 1.207-0.52148 0.12937-0.082 0.22848-0.16105 0.29492-0.28125 0.06644-0.1203 0.05385-0.31418-0.03516-0.42188-0.1011-0.1216-0.21886-0.17433-0.35352-0.23633h-0.01758l0.10156-0.07227c0.49852-0.3558 0.89824-0.67869 1.1914-0.96289 0.28826-0.2794 0.47745-0.50835 0.55273-0.75195 0.04498-0.1149 0.0704-0.24851 0.0098-0.37891-0.0092-0.02-0.03845-0.0152-0.05078-0.0332 0.15362-0.087 0.36132-0.20148 0.61133-0.33008 1.1057-0.5689 1.5916-0.87445 1.9492-1.252 0.14866-0.1571 0.24385-0.3363 0.24219-0.5293-0.0013-0.1502-0.09612-0.28085-0.21875-0.37695 0.01861-0.013 0.02812-0.02111 0.04883-0.03711 0.16741-0.1189 0.4016-0.28027 0.6582-0.45117 0.80041-0.5331 1.4318-1.0154 1.873-1.4277 0.22062-0.2062 0.39558-0.39481 0.51953-0.57031 0.12394-0.1755 0.20636-0.33844 0.20703-0.52344 7.27e-4 -0.2043-0.11325-0.39037-0.28125-0.51367l0.50976-0.56836c0.60707-0.6769 1.1076-1.2905 1.4609-1.7832 0.17668-0.2463 0.31492-0.46113 0.41406-0.64453s0.16797-0.32093 0.16797-0.49023c0-0.1055-0.02294-0.20617-0.08594-0.29297-0.06143-0.083-0.17822-0.14572-0.29492-0.14062-0.09855 0-0.16612 0.043078-0.21484 0.080078 0.03298-0.025-0.0091 3.437e-4 -0.05273 0.027344-0.0435 0.023-0.10615 0.053844-0.18164 0.089844-0.15097 0.072-0.3576 0.16749-0.5957 0.27539-0.47621 0.2158-1.0794 0.48134-1.627 0.71484-0.20057 0.085-0.59159 0.32665-1.2188 0.71875-0.61178 0.3826-1.4306 0.90562-2.3691 1.5117-0.02147 0-0.04187 0.015344-0.06055 0.027344l-1.5508 1.0137c-0.24717 0.1614-0.3522 0.22624-0.62109 0.40234-1.4003 0.9171-2.6961 1.756-3.6699 2.3789-0.48693 0.3114-0.89318 0.56841-1.1914 0.75391-0.29656 0.1846-0.51223 0.308-0.52148 0.3125-0.0012 5e-4 -0.0048 0-0.0059 0v2e-3c-0.21837 0.065-0.49965 0.10674-1.9277 0.27734-0.25588 0.031-0.38439 0.04006-0.41992 0.03906-0.0034 0 0.0013 0.0013-0.0078-0.01172-0.0313-0.04-0.09729-0.24116-0.0957-0.56836 0.0016-0.3272 0.05209-0.77457 0.15234-1.3262 0.02787-0.1533 0.05312-0.28598 0.07422-0.39648 0.23542 0.082 0.49448 0.075078 0.75781-0.044922l0.22266-0.10156c0.01922-0.013 0.03874-0.019203 0.05469-0.033203 0.0064 0 0.01583 4e-4 0.02149 0 0.09359-0.021 0.14341-0.059275 0.21875-0.10938 0.07534-0.05 0.16271-0.11527 0.26172-0.19727 0.6265-0.5212 1.0251-0.9839 1.1758-1.4375 0.07535-0.2268 0.08086-0.45812 2e-3 -0.66602-0.0789-0.2078-0.23532-0.38138-0.44531-0.51758-0.13423-0.086-0.30158-0.16947-0.44922-0.23047-0.07383-0.032-0.14034-0.055266-0.20312-0.072266-0.02866-0.013-0.05616-0.012625-0.08984-0.015625l-0.16602-0.14258c-0.49306-0.4263-1.3219-0.59756-2.4785-0.59766-0.92744-9.99e-5 -1.4303 0.083844-1.9375 0.33984-0.15437 0.078-0.27018 0.13881-0.36914 0.25391-0.09896 0.115-0.16094 0.24682-0.27344 0.47852-0.27452 0.5658-0.42233 1.0897-0.71484 2.5254-0.34726 1.7043-0.57005 2.4368-0.98633 3.2656l-0.11914 0.23828c-0.07074-0.048-0.15462-0.10584-0.2168-0.15234-0.12734-0.094-0.27796-0.16201-0.43359-0.19141-0.09554-0.017-0.23011-0.0248-0.34375 0.0332s-0.19141 0.13924-0.33203 0.27344c-0.17005 0.1622-0.29282 0.24176-0.33203 0.25586-0.0033 0-0.0021 4e-4 -0.0039 0 0.0019 1e-3 0.0051 0.0013-0.0078-0.01172-0.01068-0.013 0.0023 0.01542-0.0059-0.01758-0.0082-0.036-0.01886-0.11939-0.02734-0.27539-0.01696-0.3113-0.0272-0.90097-0.04297-2.0137-0.01825-1.2899-0.05641-2.5694-0.0918-2.9219-0.24077-2.397-0.63865-3.714-1.4551-4.332-0.1264-0.095-0.239-0.17435-0.39062-0.18945-0.15159-0.015-0.27844 0.041328-0.41602 0.11133-0.5165 0.2635-0.90702 0.87011-1.2246 1.7246-0.31759 0.8546-0.55506 1.9709-0.69727 3.2988-0.03014 0.2813-0.06479 0.59511-0.07617 0.69141-0.01496 0.1258-0.03843 0.48671-0.05859 0.84961-0.02003 0.3603-0.04209 0.72492-0.04687 0.79102-0.0076 0.1056-0.01316 0.41689-0.01758 0.74609l-0.0059 0.36523h-0.04101c-0.13404-0.013-0.40677-0.03745-0.58008-0.06445-0.19203-0.029-0.59309-0.08123-0.90625-0.11524-0.54749-0.06-0.69396-0.04316-1.2656-0.34766-0.57121-0.3042-1.5442-0.93797-3.5938-2.2598h-0.0039c-1.2244-0.8138-2.5207-1.5866-3.6895-2.4141h-0.0059c-2.9503-1.9244-3.3438-2.1211-4.6289-2.6973-0.42823-0.1919-0.82973-0.36679-1.1328-0.49609-0.15154-0.065-0.27852-0.11875-0.37305-0.15625-0.04726-0.019-0.085422-0.032922-0.11719-0.044922-0.03176-0.013-0.027986-0.020297-0.10352-0.029297-0.0072-9e-4 -0.014194 0-0.021484 0v-0.00586c-0.0076-1e-4 -0.013934-6e-4 -0.021484 0z" fill="#fff"/>
 <path d="m31.093 20.9c-0.0793 0.081-0.13656 0.1357-0.22156 0.2245-0.70901 0.7397-1.3653 1.3791-1.9041 1.8577-0.26943 0.2392-0.50603 0.4372-0.7357 0.6041-0.11484 0.084-0.22521 0.1589-0.37211 0.2385-0.14691 0.08-0.26757 0.2215-0.81808 0.2215-0.54211 0-0.63735-0.1271-0.77737-0.1978-0.14002-0.07-0.24897-0.1382-0.36548-0.2149-0.23302-0.1535-0.48497-0.3415-0.7821-0.5747-0.59427-0.4667-1.3578-1.1116-2.2535-1.9051-0.02803-0.024-0.04542-0.037-0.0729-0.062-0.25017 0.1424-0.52372 0.299-0.67605 0.3985-0.65178 0.4258-1.1268 0.8163-1.6589 1.3616-0.95809 0.9822-1.3823 1.7159-1.7034 2.9012-0.10823 0.3994-0.08143 0.2075-0.08143 1.1097 0 0.9128-0.02855 0.702 0.089 1.1391 0.41189 1.5313 1.861 3.137 4.1548 4.1813 0.65196 0.2955 2.9593 0.5987 6.0021 0.4165 1.3598-0.081 1.974-0.2224 2.5574-0.495 1.6937-0.7916 3.0091-2.0161 3.6425-3.2355 0.55116-1.061 0.64694-2.3289 0.2244-3.5877-0.44554-1.3272-1.5505-2.7013-3.2411-3.8082-0.16046-0.1055-0.61328-0.3624-1.0065-0.5729z" fill="#b6b6b6"/>
 <path d="m4.9793 2.5c-0.00759-1e-4 -0.015171 3e-4 -0.022724 9e-4 -0.066925 0-0.1276 0.042-0.16475 0.097-0.037245 0.023-0.087424 0.013-0.10983 0.049-0.065178 0.1068-0.057766 0.2054-0.042608 0.2974 0.030315 0.1837 0.12263 0.3847 0.26796 0.6297 0.33291 0.5606 0.82633 1.1877 1.7479 2.2335l0.5255 0.5956-0.037877 0.035c-0.1411 0.1312-0.25644 0.2894-0.25281 0.483 0.00364 0.1936 0.10084 0.349 0.23766 0.5378 0.22379 0.3088 0.64969 0.6983 1.1807 1.1201 0.53103 0.4219 1.1626 0.8661 1.7735 1.2357 0.0542 0.033 0.09028 0.058 0.1373 0.089-0.0513 0.028-0.10739 0.049-0.14866 0.093-0.06846 0.076-0.11045 0.1844-0.10984 0.287 0.00121 0.2053 0.11261 0.364 0.27175 0.5453 0.16456 0.1875 0.42097 0.3709 0.73476 0.572 9.7e-4 7e-4 0.0019 0 0.0028 0 0.18596 0.1339 0.37951 0.2423 0.54539 0.3332 0.29436 0.1615 0.68934 0.3633 0.89951 0.4584 0.16986 0.077 0.33889 0.1664 0.39862 0.1996-0.04664 0.086-0.09127 0.1677-0.08996 0.2842 0.0015 0.1416 0.06173 0.2535 0.14298 0.3721 0.08125 0.1189 0.1917 0.2433 0.33329 0.3815 0.28319 0.2765 0.691 0.6057 1.2233 0.9914l0.24997 0.1809c-0.05543 0.021-0.11913 0.036-0.16854 0.061-0.06532 0.034-0.12425 0.07-0.17706 0.1148-0.05281 0.045-0.10619 0.09-0.13729 0.1886-0.05365 0.169 0.03399 0.3368 0.14392 0.4458 0.10992 0.1096 0.25722 0.2007 0.44881 0.2946 0.51497 0.2522 1.6032 0.5941 2.2611 0.7167 0.15469 0.028 0.30349 0.062 0.41283 0.09 0.05466 0.015 0.09956 0.027 0.12782 0.037 0.01272 0 0.02049 0.013 0.02366 0.013 0.03116 0.024 0.05343 0.034 0.08048 0.048 0.03693 0.017 0.07993 0.037 0.12877 0.056 0.09766 0.04 0.21931 0.082 0.3456 0.1231 0.28037 0.09 0.42457 0.159 0.52077 0.247 0.09619 0.088 0.17104 0.2182 0.27648 0.4792 0.27822 0.6883 0.33868 1.0077 0.31814 1.6882-0.01689 0.5596-0.01217 0.5507-0.16002 0.8502-0.06751 0.1369-0.37867 0.6098-0.65333 0.9744-0.85099 1.1294-1.6558 2.6367-1.9628 3.6965-0.54359 1.8765-0.17231 4.4626 0.87489 6.0523 0.75711 1.1492 2.4423 2.5624 3.9143 3.3054 0.80725 0.4075 2.2315 0.7103 3.9361 0.8663 0.0012 4e-4 0.0025 7e-4 0.0038 0h2.0954c2.3338-0.017 2.9596-0.086 4.489-0.4924 0.95148-0.2528 1.7416-0.6648 2.8103-1.4544 0.67207-0.4967 1.8362-1.6533 2.2137-2.2213 0.72296-1.0875 1.1014-2.5174 1.1078-4.1198 0.0054-1.3697-0.17465-2.0882-0.88342-3.5138-0.47646-0.9583-0.76913-1.4314-1.3976-2.2563-0.11093-0.1456-0.22391-0.3036-0.31436-0.4384-0.09044-0.1352-0.16264-0.259-0.17422-0.2849-0.06377-0.1432-0.09877-0.47-0.0606-0.8741 0.03818-0.4039 0.13894-0.8889 0.29731-1.3861 0.04172-0.1312 0.08527-0.2577 0.12025-0.3523 0.01749-0.048 0.03325-0.086 0.04451-0.1136 0.0027 0 6e-3 -0.013 0.0094-0.016 0.06294-0.072 0.26929-0.2081 0.57095-0.3256 0.30979-0.1205 0.71436-0.2345 1.1675-0.3211 0.33282-0.064 0.89243-0.2173 1.2811-0.3504 0.55398-0.1896 0.94852-0.3553 1.2072-0.5207 0.12937-0.082 0.22993-0.162 0.29637-0.2822 0.06644-0.1203 0.05208-0.3128-0.03693-0.4205-0.1011-0.1216-0.21757-0.1746-0.35223-0.2366h-0.01704l0.10132-0.072c0.49852-0.3558 0.89797-0.6798 1.1911-0.964 0.28826-0.2794 0.47673-0.5072 0.55202-0.7508 0.04498-0.1149 0.07003-0.2484 0.0094-0.3788-0.0092-0.02-0.03691-0.017-0.04924-0.035 0.15362-0.087 0.35977-0.2008 0.60977-0.3294 1.1057-0.5689 1.5929-0.8752 1.9505-1.2527 0.14866-0.1571 0.24311-0.3345 0.24145-0.5275-0.0013-0.1502-0.09514-0.2826-0.21778-0.3787 0.01861-0.013 0.02758-0.02 0.04829-0.036 0.16741-0.1189 0.40146-0.2807 0.65806-0.4516 0.80041-0.5331 1.4326-1.0155 1.8738-1.4278 0.22062-0.2062 0.39398-0.3945 0.51793-0.57 0.12394-0.1755 0.20764-0.3377 0.20831-0.5227 7.27e-4 -0.2043-0.11416-0.3918-0.28216-0.5151l0.50941-0.5681c0.60707-0.6769 1.1076-1.2903 1.461-1.783 0.17668-0.2463 0.31652-0.4613 0.41567-0.6447 0.09914-0.1834 0.16759-0.3211 0.16759-0.4904 0-0.1055-0.02316-0.2059-0.08616-0.2927-0.06143-0.083-0.17872-0.1462-0.29542-0.1411-0.09855 0-0.16622 0.044-0.21494 0.081 0.03298-0.025-0.0094 0-0.05303 0.027-0.0435 0.023-0.10536 0.053-0.18085 0.089-0.15097 0.072-0.35746 0.1677-0.59557 0.2756-0.47621 0.2158-1.0791 0.4814-1.6267 0.7149-0.20057 0.085-0.59239 0.3265-1.2195 0.7186-0.61178 0.3826-1.4295 0.907-2.3681 1.5131-0.02147 0-0.04191 0.015-0.06059 0.027l-1.5509 1.0139v-9e-4c-0.24717 0.1614-0.35224 0.2264-0.62114 0.4025-1.4003 0.9171-2.6961 1.7556-3.67 2.3785-0.48693 0.3114-0.89386 0.5691-1.1921 0.7546-0.29656 0.1846-0.51246 0.3089-0.52172 0.3134-0.0012 5e-4 -0.0037 0-0.0048 0l-9.69e-4 1e-3c-0.21837 0.065-0.49971 0.1068-1.9278 0.2774-0.25588 0.031-0.38487 0.041-0.4204 0.04-0.0034 0 0.0025 0-0.0066-0.013-0.0313-0.04-0.09722-0.2409-0.09563-0.5681 0.0016-0.3272 0.05124-0.775 0.1515-1.3266 0.02787-0.1533 0.05275-0.2863 0.07385-0.3968 0.23542 0.082 0.49605 0.076 0.75938-0.044l0.22251-0.1015c0.01922-0.013 0.03708-0.02 0.05303-0.034 0.0064 0 0.01706 4e-4 0.02272 0 0.09359-0.021 0.14244-0.058 0.21778-0.1081 0.07534-0.05 0.16327-0.115 0.26228-0.197 0.6265-0.5212 1.0253-0.9845 1.176-1.4381 0.07535-0.2268 0.08171-0.4587 0.0028-0.6666-0.0789-0.2078-0.23692-0.3808-0.44692-0.517-0.13423-0.086-0.30022-0.1691-0.44786-0.2301-0.07383-0.032-0.14173-0.056-0.20452-0.073-0.02866-0.013-0.05627-0.013-0.08995-0.016l-0.16474-0.143c-0.49306-0.4263-1.3232-0.5964-2.4798-0.5965-0.92744-1e-4 -1.43 0.084-1.9373 0.34-0.15437 0.078-0.27032 0.1385-0.36927 0.2536-0.09896 0.115-0.1602 0.2475-0.2727 0.4792-0.27452 0.5658-0.42236 1.0896-0.71487 2.5253-0.34726 1.7043-0.56939 2.4358-0.98567 3.2646l-0.1193 0.2378c-0.07074-0.048-0.15465-0.1041-0.21683-0.1506-0.12734-0.094-0.27897-0.1628-0.4346-0.1922-0.09554-0.017-0.23007-0.025-0.34371 0.033s-0.19173 0.1386-0.33234 0.2728c-0.17005 0.1622-0.29219 0.2434-0.3314 0.2575-0.0033 0-2e-3 4e-4 -0.0038 0 0.0019 1e-3 0.0053 0-0.0076-0.013-0.01068-0.013 0.0025 0.016-0.0057-0.017-0.0082-0.036-0.01992-0.1204-0.0284-0.2764-0.01696-0.3113-0.02685-0.8993-0.04262-2.012-0.01825-1.2899-0.05551-2.5705-0.0909-2.923-0.24077-2.397-0.63889-3.714-1.4553-4.332-0.1264-0.095-0.23943-0.1733-0.39105-0.1884-0.15159-0.015-0.27904 0.041-0.41662 0.111-0.5165 0.2635-0.90574 0.8687-1.2233 1.7232-0.31759 0.8546-0.55562 1.972-0.69783 3.2999-0.03014 0.2813-0.06531 0.5949-0.07669 0.6912-0.01496 0.1258-0.03854 0.4874-0.0587 0.8503-0.02003 0.3603-0.04161 0.7234-0.0464 0.7895-0.0076 0.1056-0.01357 0.417-0.01799 0.7462l-0.0048 0.3664h-0.04168c-0.13404-0.013-0.40616-0.038-0.57947-0.065-0.19203-0.029-0.59298-0.081-0.90614-0.115-0.54749-0.06-0.69427-0.044-1.2659-0.3485-0.57121-0.3042-1.5447-0.9363-3.5943-2.2581h-0.0028c-1.2244-0.8138-2.5211-1.587-3.6899-2.4145h-0.0066c-2.9503-1.9244-3.343-2.1214-4.6282-2.6976-0.42823-0.1919-0.82935-0.3679-1.1324-0.4972-0.15154-0.065-0.27854-0.1176-0.37306-0.1551-0.047262-0.019-0.086593-0.034-0.11836-0.046-0.031764-0.013-0.026726-0.02-0.10226-0.029-0.00722-9e-4 -0.014491 0-0.021778 0zm18.99 1.0207c-6e-3 0.013 0.01231 0.021 0.01325 0.013 0.1744 0.1675 0.39241 0.5773 0.57379 1.159 0.18139 0.5817 0.33789 1.3348 0.4507 2.2052 0.10716 0.8268 0.1535 3.2486 0.07764 4.1065-0.08877 1.004-0.28111 1.7943-0.49994 2.4201 0.09422-1.233 0.14045-3.0192 0.06628-4.1084-0.03402-0.4996-0.10627-1.2595-0.16191-1.7034-0.05405-0.431-0.09836-0.9346-0.09848-1.049-2.42e-4 -0.2267-0.03671-0.5516-0.08237-0.839-0.02284-0.1436-0.04838-0.276-0.07385-0.3815-0.01272-0.053-0.02441-0.098-0.03977-0.1402-0.0077-0.021-0.01608-0.042-0.02936-0.066-0.01326-0.024-0.02301-0.058-0.09184-0.1006-0.09153-0.057-0.26679-0.066-0.37022 0-0.10343 0.072-0.15155 0.1643-0.20452 0.2803-0.10594 0.2319-0.20839 0.5895-0.35318 1.16-0.40646 1.6013-0.53122 2.4796-0.70825 4.987-0.01478 0.2093-0.03726 0.487-0.04924 0.6089-7e-3 0.07-0.01773 0.2874-0.02745 0.4469-0.15744-0.5578-0.22044-1.0029-0.17138-1.6656 0.02628-0.355 0.23352-1.6994 0.45449-2.9939 0.11049-0.6472 0.22477-1.2884 0.32193-1.8018 0.09717-0.5136 0.18241-0.9153 0.21588-1.0255 0.15468-0.5095 0.53551-1.2361 0.74328-1.4686zm-17.183 0.9364c0.57977 0.3539 1.4867 0.9245 2.8472 1.7887l1.3379 0.8493c0.139 0.1042 0.18907 0.1464 0.2102 0.1648 0.02188 0.019 0.05165 0.044 0.10416 0.076 0.08032 0.05 0.16395 0.1042 0.23103 0.1515 0.06707 0.048 0.12689 0.097 0.1212 0.09 0.02971 0.029 0.06141 0.053 0.09374 0.075 0.0065 0.019 0.01325 0.035 0.02082 0.052 0.02098 0.045 0.04806 0.094 0.08332 0.1553 0.07053 0.1217 0.1718 0.2819 0.29352 0.4688 0.06126 0.093 0.15232 0.2182 0.22251 0.3227-0.30797-0.2579-0.62875-0.5582-0.89762-0.7338v0.1028c2.1e-4 -0.057-0.0215-0.1108-0.0606-0.1523-0.0042 0-0.01006-0.013-0.0142-0.013h0.0048c-0.0093-0.013-0.01953-0.016-0.03031-0.023-0.04501-0.029-0.08347-0.05-0.11268-0.068-6.31e-4 -3e-4 -0.0012-7e-4 -0.0019-1e-3l-0.0284-0.017h-9.69e-4c-0.60063-0.3708-1.2332-0.6752-1.9051-0.9044-0.17041-0.058-0.3358-0.1108-0.46775-0.1495-0.065973-0.019-0.12303-0.035-0.17043-0.048-0.019048 0-0.041449 0-0.055864-0.013-0.00727 0-0.012888-0.013-0.025563-0.021-0.039554-0.037-0.098314-0.098-0.16759-0.1733-0.13856-0.151-0.32029-0.364-0.50846-0.5975-0.35119-0.4358-0.82077-1.016-1.123-1.3891zm40.76 0.3126c-0.02321 0.028-0.03573 0.048-0.05965 0.077-0.38975 0.4795-0.92718 1.1553-1.1987 1.5083-0.35456 0.4608-0.53558 0.5954-0.58421 0.6069-0.81419 0.1917-1.8005 0.6306-2.6237 1.1221-0.03999 0-0.07862 0.015-0.11173 0.038l-0.30584 0.2074c-0.03059 0.02-0.05181 0.038-0.06534 0.048-0.0025 0-0.02248 0.013-0.05682 0.036-9.69e-4 5e-4 -0.0019 0-0.0028 0-0.03988 0.028-0.07083 0.057-0.07669 0.061-0.14799 0.1068-0.30661 0.248-0.46206 0.3795l0.61545-0.9173c0.04105-0.038 0.10053-0.089 0.2405-0.1827l0.35886-0.2387c0.05596-0.037 0.09187-0.097 0.09753-0.1647v0.092l1.3531-0.8606c1.3108-0.8342 2.2453-1.4224 2.8557-1.7953 0.01204-0.013 0.01472-0.013 0.02652-0.016zm-16.856 1.1419h0.24902c0.95448 0 2.516 0.083 3.1454 0.1694h9.7e-4l0.37211 0.052c0.01176 0.046 0.02424 0.094 0.04262 0.1448 0.1093 0.3098 0.12576 0.7331 0.05208 1.1363-0.07368 0.4031-0.23842 0.7856-0.44407 1.0198-0.03602 0.041-0.05275 0.078-0.07764 0.1122l-0.2547-0.1311-9.69e-4 -1e-3c-0.58728-0.3043-1.8336-1.2981-3.0167-2.4363v-1e-3zm-22.219 1.4164c0.0016-4e-4 0.020578 0 0.13445 0.032 0.11388 0.038 0.30042 0.115 0.59178 0.2376 0.75473 0.3186 1.3381 0.6425 1.9032 1.0426 4e-6 0 0.0027 9e-4 0.0028 9e-4 0.07446 0.066 0.16418 0.137 0.32193 0.2529 0.21392 0.1571 0.78993 0.6371 1.2934 1.0717 0.04858 0.042 0.07982 0.07 0.12688 0.1122-0.33704-0.086-0.68781-0.1449-1.0491-0.1449-0.17353 0-0.27837 0-0.33329-0.016-0.04839-0.013-0.05715-0.017-0.08332-0.036h-0.0057l-1.1116-0.9203c-0.67345-0.5569-1.4161-1.2086-1.6068-1.4043l-0.20547-0.2111c0.00285 0 0.012279-0.013 0.013253-0.013 6.303e-4 -3e-4 0.00126-7e-4 0.00189-9e-4 0.00189-3e-4 0.00379-7e-4 0.00568 0zm21.584 0.084c-0.0262 0.2599-0.05843 0.5658-0.10037 0.8058-0.1988 1.1381-0.36162 3.4741-0.36264 5.1273-6.2e-5 0.1041-0.0046 0.1679-0.0066 0.2565-0.04973-0.075-0.10171-0.145-0.14298-0.2225-0.07003-0.1311-0.22416-0.5114-0.31625-0.7924l-0.15528-0.4735 0.21399-0.8844v-9e-4c0.37409-1.549 0.63386-2.6884 0.84175-3.6899 0.01006-0.048 0.0184-0.08 0.0284-0.1258zm0.62966 0.097c0.02521 0.074 0.05731 0.082 0.07764 0.1772 0.0715 0.3308 0.11081 0.7789 0.11078 1.3312-6.4e-5 1.2039-0.10036 2.1004-0.49142 4.3933-0.05463 0.3205-0.10727 0.5971-0.1496 0.7897h-9.7e-4c-7.27e-4 -8e-4 -0.0021 0-0.0028 0-0.0052 0-7e-3 -0.013-0.01041-0.015-3.51e-4 0-8.72e-4 0-9.69e-4 -0.013-8.23e-4 -0.031-2.91e-4 -0.075 9.69e-4 -0.1285 0.0024-0.1068 0.0093-0.2464 0.01988-0.3911 0.0217-0.2965 0.0655-0.9088 0.09659-1.3605 0.03101-0.4508 0.06585-0.939 0.07764-1.072 0.01311-0.1474 0.03761-0.4916 0.05492-0.7754 0.01709-0.2799 0.04112-0.5992 0.05018-0.6817 0.0142-0.1298 0.04646-0.6161 0.07764-1.1391 0.02543-0.4265 0.06156-0.8355 0.08995-1.1191zm-7.0105 0.1535c0.03937 0.6511 0.08611 1.1875 0.1051 2.0859 0.02922 1.3821-0.01231 2.5431-0.11646 3.438-0.10422 0.8949-0.28366 1.5279-0.47437 1.8161-0.0068 0.013-0.01812 0.021-0.02651 0.033-0.0068-0.088-0.01716-0.134-0.01514-0.2899 0.0036-0.2694 0.02135-0.6376 0.05397-1.1154 0.06859-1.0045 0.09135-1.4581 0.16475-3.2619 0.02913-0.716 0.07878-1.5145 0.10416-1.7261 0.01865-0.1554 0.12877-0.6059 0.20452-0.9789zm22.184 0c-0.06108 0.072-0.13088 0.1501-0.30867 0.3228-0.28074 0.2729-1.012 0.91-1.603 1.3939l-0.98567 0.8066c-0.01217 0-0.02024 0.013-0.0284 0.015-6.31e-4 2e-4 -0.01028 0-0.02367 0-0.02692 0-0.07091 0.015-0.12404 0.021-0.10624 0.015-0.24964 0.029-0.39957 0.04-0.0019 3e-4 -0.0038 7e-4 -0.0057 9e-4 -0.05843 0-0.1054 0.013-0.1515 0.015-0.21789 0.019-0.42268 0.046-0.61735 0.083-0.02843 0-0.05083 0.013-0.0729 0.013-0.0021 7e-4 -0.0045 0-0.0066 0-0.02798 0-0.05351 0.013-0.08048 0.02 0.3343-0.3027 0.72848-0.6518 1.1021-0.961 0.7637-0.6319 1.4219-1.0306 2.4202-1.463 0.53064-0.2297 0.78178-0.3056 0.88531-0.3161zm-14.201 0.4373c0.50852 0.5552 0.71473 1.4181 0.52834 2.533-0.08426 0.5039-0.37028 1.5238-0.71298 2.5233-0.04455 0.1298-0.07698 0.269-0.12214 0.4213-0.01122-0.2557-0.04214-0.3441-0.04166-0.9118 8.25e-4 -1.0026 0.05516-2.1222 0.13445-3.0366 0.03965-0.4571 0.08531-0.8634 0.1335-1.175 0.02957-0.191 0.05292-0.2501 0.08048-0.3542zm-18.766 0.1526c1.4668 0.6674 4.6828 2.7547 5.9084 3.8404 0.1898 0.1681 0.49802 0.4286 0.6931 0.587 0.3881 0.315 0.85558 0.8748 0.9459 1.0738 0.02729 0.06 0.0753 0.2779 0.07575 0.3824 6.3e-4 0.1472-0.02761 0.2183-0.05776 0.2548-0.03015 0.037-0.082 0.069-0.21399 0.086-0.09256 0.013-0.11445 0.013-0.18464-0.013-0.07019-0.02-0.19059-0.074-0.40241-0.1819l-9.7e-4 -1e-3c-0.76384-0.3837-2.0238-1.2584-2.8794-2.0063-0.22394-0.1958-0.9797-0.9111-1.6551-1.5672-0.98649-0.9579-1.3413-1.3402-1.8511-1.9978-0.15714-0.2026-0.2489-0.3041-0.3778-0.463zm28.395 0.4146c-0.15064 0.1938-0.25649 0.3258-0.41283 0.5303-0.33005 0.4317-1.0597 1.2072-1.8397 1.9779-0.23806 0.2348-0.43766 0.4193-0.65617 0.6277-0.63556 0.6034-1.2608 1.1712-1.6835 1.498-0.01568 0.013-0.0297 0.025-0.04166 0.042-0.70742 0.565-1.3154 0.9565-1.9676 1.2753-0.14109 0.069-0.27932 0.1313-0.38348 0.1742-0.05207 0.021-0.09557 0.04-0.12404 0.049-0.0044 0-5e-3 8e-4 -0.0085 0-0.11677-0.013-0.19638-0.027-0.21683-0.037-0.02287-0.013-0.02284-0.013-0.05965-0.068-0.1061-0.174-0.09723-0.3923 0.0928-0.7224 0.19002-0.3302 0.56447-0.7339 1.1126-1.1713 0.20211-0.1612 0.52558-0.4286 0.72529-0.5984 0.61439-0.5221 1.63-1.2498 2.6663-1.9287v9e-4c8e-3 0 0.01485-0.013 0.02178-0.015 1.0296-0.6737 2.0761-1.2954 2.7752-1.6353zm-29.829 1.994c0.3719-3e-4 1.1054 0.09 1.3095 0.1602 0.62807 0.213 1.5533 0.7873 2.1749 1.2734-0.17278-0.042-0.3591-0.09-0.48384-0.1081h-0.0019c-0.22542-0.036-0.48194-0.037-0.68174 0l-0.19979 0.031-0.82755-0.498c-0.48698-0.2932-1.0343-0.6391-1.1959-0.7527-0.04941-0.044-0.07633-0.07-0.10605-0.1006 0.0066-1e-4 0.0052 0 0.01231 0zm31.358 0.3315c5e-3 0 0.03788 6e-4 0.04924 9e-4l-0.08331 0.065c-0.0061 0-0.17481 0.119-0.38442 0.2529-0.20961 0.1338-0.47995 0.3028-0.75843 0.4744l-0.92224 0.5679h-0.06912l-0.09848-0.021c-0.32246-0.073-0.78317 0-1.2603 0.1244 0.1284-0.1055 0.23258-0.2105 0.36264-0.2982 0.26054-0.1757 0.47887-0.3118 0.69215-0.4394 0.1315-0.074 0.25898-0.1475 0.38726-0.2129 0.29746-0.1519 0.525-0.2488 0.74612-0.323 0.28719-0.086 0.57605-0.1339 0.92413-0.1609 0.16164-0.013 0.29928-0.021 0.41472-0.027zm-28.527 1.7261c0.38259 0.013 0.86615 0.1312 1.5803 0.411 0.40189 0.157 0.56473 0.2518 0.89099 0.5169 0.40397 0.3283 1.0046 0.7549 1.532 1.1031 0.26263 0.1733 0.50572 0.3256 0.69972 0.4384-1.2968-0.488-2.3261-0.7868-3.0271-0.8228l-0.37969-0.02-0.57-0.4762c-0.37596-0.3152-0.68891-0.5953-0.90424-0.8059-0.10644-0.1042-0.18821-0.1915-0.23955-0.2527 0.01055-0.013 0.01701-0.019 0.0284-0.027 0.05716-0.041 0.07187-0.048 0.11552-0.057 0.04365-0.013 0.1269-0.013 0.27364-0.013zm25.781 0.3522c0.17464 0 0.30447 0.017 0.37685 0.042 9e-3 0 0.0094 0 0.01609 0.013-0.01739 0.021-0.08168 0.1231-0.27648 0.3086-0.2125 0.2029-0.64485 0.5861-0.94685 0.8389l-0.50183 0.4195-0.42135 0.025c-0.63867 0.04-1.5936 0.2884-2.6218 0.6694-0.15681 0.058-0.15535 0.056-0.28122 0.1028 0.0056 0 0.01339-0.013 0.01893-0.013 0.44456-0.2353 1.2496-0.8012 1.852-1.2773 0.02367-0.013 0.04577-0.02 0.06533-0.037 0.60646-0.4902 1.1755-0.7697 2.0187-0.9893 0.2299-0.06 0.48705-0.095 0.70162-0.1016zm-13.953 0.6278 0.01041 0.1705c0.04211 0.7128 0.07146 1.0166 0.1354 1.4184 0.1015 0.6376 0.03163 1.3711-0.14487 1.7828-0.09317 0.2174-0.39364 0.5415-0.58137 0.6373-0.07708 0.04-0.24687 0.082-0.41472 0.095-0.16748 0.013-0.3408 0-0.41946-0.028h-9.7e-4c-0.0013-6e-4 -0.07314-0.038-0.14298-0.088-0.07017-0.052-0.1489-0.1163-0.2102-0.177-0.28568-0.285-0.34013-0.4476-0.30394-0.9204 0.05173-0.6757 0.41578-1.3097 1.3256-2.206 0.16944-0.1671 0.3503-0.3371 0.50373-0.4763 0.11364-0.1028 0.18091-0.1578 0.24334-0.2084zm1.8596 0.099c0.05104 0.042 0.09175 0.073 0.14866 0.1217 0.80914 0.6748 1.3754 1.3391 1.6788 1.9296 0.3034 0.5906 0.34578 1.0893 0.15718 1.498-0.11892 0.2577-0.27296 0.4041-0.55675 0.5226-0.33597 0.1405-0.89683 0-1.1589-0.2926-0.42229-0.481-0.56235-1.1728-0.39957-2.2649 0.04241-0.2845 0.09027-0.8181 0.11078-1.2138 0.0061-0.1177 0.01298-0.2033 0.01988-0.3001zm-12.144 1.3662h0.0019c0.09423 0 0.19741 0.013 0.31814 0.027h9.69e-4c0.60504 0.068 1.3628 0.2682 2.7885 0.748 0.02412 0.013 0.02228 0.013 0.04545 0.016-0.0031-2e-4 -0.02575 0-0.02556 0h-9.7e-4c-0.04695-0.013-0.23742-0.055-0.40809-0.095-0.18987-0.045-0.4255-0.08-0.58989-0.08-0.04569 0-0.27916-0.035-0.54918-0.097-0.27001-0.061-0.59743-0.1445-0.91655-0.2329-0.30975-0.085-0.60752-0.1755-0.8427-0.2538 0.06393 0 0.09053-0.033 0.17801-0.029zm22.772 0.3559c-0.57742 0.1922-1.6308 0.4891-2.2431 0.5985h-9.69e-4c-0.14316 0.025-0.41107 0.042-0.65712 0.06 0.01709 0 0.01368 0 0.03124-0.013 0.7095-0.2316 1.528-0.4728 1.763-0.5237 0.41196-0.089 0.79657-0.1204 1.1069-0.1244zm-18.156 0.965c0.0089 0.013 0.01311 0.013 0.02367 0.023 0.05398 0.054 0.12693 0.1351 0.19978 0.2224 0.33052 0.3989 0.46585 0.7106 0.46585 0.8513 0 0.07-0.01339 0.098-0.05682 0.1363-0.04345 0.04-0.13319 0.085-0.28027 0.1137-0.15135 0.028-0.29411 0.044-0.39105 0.046-0.01431 4e-4 -0.01723-6e-4 -0.02936-9e-4 -0.0062-0.025-0.01231-0.049-0.01799-0.077-0.08066-0.3958-0.35318-0.8775-0.64764-1.2006 0.14366-0.015 0.28617-0.023 0.42514-0.053 0.09718-0.02 0.19159-0.04 0.26417-0.053 0.01815 0 0.02954 0 0.04451-0.013zm13.55 0.2784c0.0085 0 0.01623 0 0.02651 0.013 0.0395 0.013 0.08811 0.021 0.14392 0.035 0.11162 0.025 0.25113 0.057 0.39484 0.085l0.10984 0.021c-0.32529 0.3245-0.5826 0.7978-0.68079 1.266l-0.02272 0.1054-0.07575-9e-4h-9.7e-4c-0.24637 0-0.42138-0.052-0.52172-0.1096-0.10051-0.057-0.13308-0.1081-0.14582-0.1942-0.02546-0.1722 0.12589-0.5585 0.5719-1.03 0.13661-0.1445 0.21612-0.1891 0.20073-0.1885zm-7.5436 1.5178c0.01709 0.1405 0.03545 0.2941 0.0587 0.5084 0.03762 0.3468 0.10198 0.7217 0.1657 1.0047 0.03186 0.1414 0.06229 0.2577 0.09469 0.3474 0.0162 0.045 0.02532 0.078 0.06723 0.1338 0.02094 0.027 0.05295 0.082 0.16191 0.096 0.05449 0.013 0.12009-0.013 0.16002-0.04 0.03993-0.028 0.05945-0.058 0.07196-0.081 0.03844-0.069 0.04417-0.1082 0.06155-0.1752 0.01738-0.066 0.03579-0.1474 0.05492-0.2404 0.03825-0.1862 0.07935-0.4199 0.11836-0.6618 0.05565-0.3454 0.08134-0.6179 0.107-0.8855 0.45109 0.3284 1.0029 0.5645 1.8823 0.8105-0.04349 0.042-0.07552 0.073-0.12877 0.1244-0.21616 0.2064-0.50418 0.478-0.79251 0.7481-0.28833 0.2698-0.57715 0.5393-0.79725 0.7413-0.07894 0.073-0.13553 0.1217-0.19316 0.1742-0.01457-0.02-0.02651-0.042-0.04262-0.062-0.07897-0.1015-0.16489-0.1975-0.27364-0.2688-0.03021-0.02-0.06064-0.041-0.10794-0.058-0.04729-0.019-0.11788-0.029-0.17896-0.016-0.12214 0.025-0.17285 0.083-0.24902 0.1477-0.09371 0.078-0.16791 0.1839-0.23577 0.2877l-0.99704-0.9438-0.9175-0.8693 0.18842-0.057c0.80925-0.2454 1.2703-0.4444 1.6797-0.7365zm4.4 1.0387c0.04405 0.019 0.09806 0.042 0.16665 0.074 0.15436 0.073 0.35763 0.1773 0.57379 0.2916 0.43232 0.2286 0.92027 0.5031 1.1713 0.6674 1.8709 1.2251 3.1749 2.7891 3.7297 4.4418 0.52073 1.5511 0.41154 3.1721-0.29826 4.5382-0.78894 1.5187-2.3059 2.8898-4.2088 3.7789-0.75614 0.3533-1.5728 0.5214-3.0015 0.6069-3.1286 0.1873-5.4742-0.023-6.5787-0.5235-2.5427-1.1571-4.2941-2.9837-4.8299-4.9758-0.12594-0.4683-0.13066-0.534-0.13066-1.4562 0-0.9121 0.0053-0.9907 0.12404-1.4288 0.36735-1.356 0.94327-2.3437 2.0073-3.4343 0.58686-0.6016 1.1497-1.0628 1.8653-1.5301 0.24975-0.1632 0.63663-0.3902 0.96863-0.5728 0.166-0.09 0.31957-0.1718 0.43366-0.2282 0.04081-0.02 0.06875-0.033 0.09753-0.046 0.04136 0.033 0.09175 0.073 0.15812 0.1271 0.14995 0.1244 0.35249 0.2986 0.56811 0.4896 0.88379 0.7828 1.6349 1.4176 2.1976 1.8595 0.28138 0.2211 0.5149 0.3932 0.69878 0.5142 0.09193 0.061 0.17116 0.1081 0.2424 0.1439 0.07123 0.035 0.12331 0.069 0.23008 0.069 0.10954 0 0.16625-0.036 0.23766-0.074 0.0714-0.04 0.14816-0.089 0.23577-0.1534 0.17521-0.1271 0.39087-0.3054 0.64197-0.5283 0.50219-0.4459 1.143-1.0684 1.8341-1.7896 0.25078-0.2615 0.48633-0.5002 0.66185-0.6713 0.08471-0.082 0.15361-0.1473 0.20357-0.1922z" fill="#888a85"/>
 <text x="53.591648" y="31.742432" fill="#555753" font-family="sans-serif" font-size="19.036px" letter-spacing="0px" word-spacing="0px" style="line-height:0%" xml:space="preserve"><tspan x="53.591648" y="31.742432" fill="#555753" font-family="Montserrat" font-size="18.818px" style="line-height:1.25">VERIFIER</tspan></text>
 <g fill="#3c6eb4">
  <path d="m64.721 12.691h-4.2427c0.06873 0.91973 0.81008 1.6063 1.7986 1.6063 0.70023 0 1.3044-0.28841 1.785-0.75503 0.09616-0.09642 0.206-0.12386 0.32952-0.12386 0.1648 0 0.3296 0.08249 0.43935 0.21977 0.06873 0.09616 0.10993 0.206 0.10993 0.31576 0 0.15104-0.06873 0.31576-0.19233 0.43944-0.57672 0.61775-1.5515 1.0298-2.5127 1.0298-1.7438 0-3.1442-1.4005-3.1442-3.1444 0-1.7438 1.3593-3.1442 3.1031-3.1442 1.7301 0 3.0207 1.3454 3.0207 3.1165 0 0.26114-0.23326 0.4397-0.49424 0.4397zm-2.5266-2.4303c-0.91992 0-1.5515 0.60416-1.6887 1.4826h3.3776c-0.1236-0.83735-0.78263-1.4826-1.6889-1.4826z"/>
  <path d="m76.844 15.424c-1.7437 0-3.1442-1.4005-3.1442-3.1444 0-1.7438 1.4005-3.1442 3.1442-3.1442 1.7439 0 3.1444 1.4004 3.1444 3.1442-8.7e-5 1.7438-1.4005 3.1444-3.1444 3.1444zm0-5.094c-1.0983 0-1.8124 0.87881-1.8124 1.9497 0 1.0708 0.71409 1.9497 1.8124 1.9497 1.0984 0 1.8127-0.87889 1.8127-1.9497-8.7e-5 -1.0709-0.71426-1.9497-1.8127-1.9497z"/>
  <path d="m84.529 9.1361c-0.92122 0-1.5306 0.27247-2.0686 0.95634l-0.049651-0.31812c-0.041723-0.33204-0.325-0.58858-0.66801-0.58858-0.37212 0-0.67385 0.30139-0.67385 0.67358v4.8375c0 0.37071 0.30198 0.67288 0.6728 0.67288 0.37071 0 0.67288-0.30217 0.67288-0.67288v-2.5949c0-1.1808 1.0298-1.7712 2.1145-1.7712 0.32952 0 0.59023-0.27464 0.59023-0.60426 0-0.3296-0.26071-0.59023-0.59032-0.59023z"/>
  <path d="m91.629 12.28c0.01376-1.6888-1.1947-3.1442-3.1444-3.1442-1.7438 0-3.158 1.4004-3.158 3.1442 0 1.7438 1.373 3.1444 3.0345 3.1444 0.82923 0 1.5755-0.42682 1.9084-0.8728l0.16393 0.41609c0.08798 0.2338 0.31349 0.40017 0.57794 0.40017 0.34084 0 0.61715-0.27612 0.61766-0.61669v-1.6127zm-3.1444 1.9497c-1.0985 0-1.8125-0.87889-1.8125-1.9497 0-1.0709 0.71391-1.9497 1.8125-1.9497 1.0984 0 1.8125 0.87881 1.8125 1.9497 0 1.0708-0.71409 1.9497-1.8125 1.9497z"/>
  <path d="m72.62 6.649c0-0.37055-0.30198-0.65896-0.67272-0.65896-0.37063 0-0.67288 0.2885-0.67288 0.65896v3.5427c-0.34311-0.63161-1.0846-1.0572-1.9634-1.0572-1.7849 0-2.9794 1.3454-2.9794 3.1442 0 1.7987 1.2358 3.1444 2.9794 3.1444 0.77786 0 1.4523-0.32107 1.8562-0.87906l0.14938 0.37891c0.09251 0.26009 0.34068 0.44623 0.63221 0.44623 0.36898 0 0.67131-0.30044 0.67131-0.67098v-8.049h-8.7e-5zm-3.1442 7.5793c-1.0984 0-1.7986-0.87889-1.7986-1.9497 0-1.0709 0.70023-1.9497 1.7986-1.9497 1.0985 0 1.7986 0.83752 1.7986 1.9497 0 1.112-0.70015 1.9497-1.7986 1.9497z"/>
  <path d="m58.617 6.0314c-0.12273-0.018116-0.24782-0.027263-0.37203-0.027263-1.3905 0-2.5216 1.1313-2.5216 2.5218v0.78769h-0.82401c-0.30209 0-0.54929 0.2472-0.54929 0.54902 0 0.30225 0.2472 0.60678 0.54929 0.60678h0.82384v4.2264c0 0.37071 0.30209 0.67288 0.67272 0.67288 0.37081 0 0.67288-0.30217 0.67288-0.67288v-4.2264h0.91095c0.30198 0 0.5491-0.30452 0.5491-0.60678 0-0.3019-0.24712-0.5491-0.5491-0.5491h-0.91042v-0.78769c0-0.64832 0.52742-1.2631 1.1758-1.2631 0.05845 0 0.11724 0.00436 0.17491 0.012807 0.36776 0.054442 0.70973-0.1121 0.76435-0.47994 0.05427-0.36749-0.19956-0.70965-0.56722-0.76418z"/>
 </g>
 <path d="m91.941 14.64h0.58162v0.07829h-0.24406v0.60926h-0.09348v-0.60926h-0.24406v-0.07829m0.67371 0h0.13861l0.17545 0.46788 0.17637-0.46788h0.13861v0.68753h-0.09072v-0.60372l-0.1773 0.47156h-0.093484l-0.17729-0.47156v0.60372h-0.09026v-0.68753" fill="#294172"/>
</svg>
