<svg xmlns="http://www.w3.org/2000/svg" height="96" width="96">
<rect y="0" x="0" height="96" width="96" fill="#ff4500" />
<path fill="#ffffff" d="m 79.942402,48.045866 c 0,-3.8912 -3.146668,-6.981334 -6.981334,-6.981334 -1.888,0 -3.605334,0.743468 -4.864,1.9456 -4.8064,-3.4336 -11.387734,-5.665066 -18.712534,-5.950932 L 52.588802,22.066132 63.003734,24.2976 c 0.1152,2.632532 2.289068,4.749866 4.9792,4.749866 2.746668,0 4.978134,-2.231466 4.978134,-4.9792 0,-2.746666 -2.231466,-4.978135 -4.978134,-4.978135 -1.9456,0 -3.662932,1.144535 -4.464,2.804269 l -11.616,-2.460801 c -0.343466,-0.0576 -0.686932,0 -0.916266,0.17174 -0.285866,0.17174 -0.4576,0.457601 -0.514134,0.801069 l -3.5488,16.709332 c -7.438932,0.229334 -14.1344,2.4608 -18.9984,5.952 -1.258666,-1.202132 -2.976,-1.9456 -4.864,-1.9456 -3.8912,0 -6.981333,3.146668 -6.981333,6.981334 0,2.8608 1.716267,5.264 4.120533,6.352 -0.1152,0.685866 -0.17174,1.3728 -0.17174,2.117334 0,10.757332 12.532266,19.5136 27.982932,19.5136 15.450668,0 27.982934,-8.698668 27.982934,-19.5136 0,-0.686934 -0.0576,-1.431468 -0.17174,-2.117334 2.4032,-1.088 4.119468,-3.5488 4.119468,-6.4096 z M 31.988268,53.024 c 0,-2.746668 2.231466,-4.978134 4.9792,-4.978134 2.746666,0 4.978134,2.231466 4.978134,4.978134 0,2.746666 -2.231468,4.9792 -4.978134,4.9792 -2.747734,0.05654 -4.9792,-2.232534 -4.9792,-4.9792 z m 27.8688,13.2192 c -3.4336,3.4336 -9.957334,3.662932 -11.845334,3.662932 -1.9456,0 -8.469332,-0.286932 -11.8464,-3.662932 -0.514132,-0.5152 -0.514132,-1.316268 0,-1.831468 0.5152,-0.514132 1.316268,-0.514132 1.831468,0 2.174932,2.174934 6.753066,2.9184 10.014932,2.9184 3.261868,0 7.896534,-0.743466 10.013868,-2.9184 0.5152,-0.514132 1.316266,-0.514132 1.831466,0 0.4576,0.5152 0.4576,1.316268 0,1.831468 z m -0.916266,-8.183468 c -2.746668,0 -4.978134,-2.231466 -4.978134,-4.978132 0,-2.746668 2.231466,-4.978134 4.978134,-4.978134 2.747732,0 4.9792,2.231466 4.9792,4.978134 0,2.689066 -2.231468,4.978132 -4.9792,4.978132 z" />
</svg>
